<?xml version="1.0" encoding="utf-8"?>
<!-- Generator: Adobe Illustrator 23.1.1, SVG Export Plug-In . SVG Version: 6.00 Build 0)  -->
<svg version="1.1" id="ffb37006-6823-47d5-b4b5-21f07e9e71a0"
	 xmlns="http://www.w3.org/2000/svg" xmlns:xlink="http://www.w3.org/1999/xlink" x="0px" y="0px" viewBox="0 0 1038.5 784.4"
	 style="enable-background:new 0 0 1038.5 784.4;" xml:space="preserve">
<style type="text/css">
	.st0{opacity:0.1;fill:#11AB7C;enable-background:new    ;}
	.st1{opacity:0.1;fill:#F7AB7C;enable-background:new    ;}
	.st2{fill:#11AB7C;}
	.st3{opacity:0.1;}
	.st4{fill:#67647E;}
	.st5{opacity:0.1;enable-background:new    ;}
	.st6{opacity:0.21;fill:#11AB7C;}
	.st7{fill:none;stroke:#535461;stroke-miterlimit:10;}
	.st8{opacity:0.2;fill:#F5F5F5;enable-background:new    ;}
	.st9{fill:none;stroke:#535461;stroke-width:2;stroke-miterlimit:10;}
	.st10{fill:#A8A8A8;}
	.st11{opacity:0.2;enable-background:new    ;}
	.st12{fill:url(#SVGID_1_);}
	.st13{fill:#FEC3BE;}
	.st14{fill:#8B416F;}
	.st15{fill:#005AD4;}
	.st16{fill:#FFFFFF;}
	.st17{fill:#EE6C4D;}
	.st18{fill:#784F69;}
	.st19{fill:#4D4981;}
	.st20{fill:url(#SVGID_2_);}
	.st21{opacity:5.000000e-02;enable-background:new    ;}
	.st22{fill:#F5B759;}
	.st23{fill:#E8EAF2;}
	.st24{opacity:0.3;fill:#005AD4;enable-background:new    ;}
	.st25{fill:#3F3D56;}
	.st26{fill:#FABDBD;}
	.st27{fill:url(#SVGID_3_);}
	.st28{fill:#F86D70;}
	.st29{fill:#AE6E79;}
	.st30{fill:#434175;}
</style>
<path class="st0" d="M299.2,247.3c-0.2,0-0.5-0.1-0.7-0.1c-0.3,0.2-0.7,0.4-1.1,0.5c-0.1,0.3-0.3,0.6-0.4,0.9c1-0.5,2-0.9,3.1-1.2
	C299.8,247.4,299.6,247.3,299.2,247.3z"/>
<path class="st0" d="M145.3,324c0.6-0.1,1.1-0.2,1.7-0.3c0.3-0.3,0.5-0.6,0.8-0.9c0.9-1.3,1.8-2.6,2.7-4
	C148.7,320.5,147,322.2,145.3,324z"/>
<path class="st0" d="M149.7,295.7c0.5,0.1,1,0.4,1.4,0.7c1.2,0.8,1.5,2.1,0.6,3.2c-5.4,6.9-11,13.6-16.6,20.4
	c-1.4,2.2-2.7,4.5-4.1,6.7c0.9-0.2,1.7-0.3,2.6-0.5c1.4-1.4,2.8-2.9,4.2-4.3c3.8-5.3,7.7-10.6,11.6-15.9c3.5-4.7,7-9.4,10.6-14.1
	l-6.8-1.4c-1,1.1-1.9,2.2-2.9,3.2C150.2,294.5,149.9,295.1,149.7,295.7z"/>
<path class="st0" d="M204.6,303.6c0.7-0.7,1.4-1.5,2.1-2.2l-6.8-1.4c-1.4,1.2-2.8,2.5-4.2,3.7C198.7,303.3,201.7,303.2,204.6,303.6z
	"/>
<path class="st0" d="M183.9,317.5c0.1,0,0.1,0,0.2,0c1-1.1,1.9-2.2,2.9-3.3c0-0.1-0.1-0.1-0.1-0.2
	C185.9,315.2,184.9,316.3,183.9,317.5z"/>
<path class="st1" d="M735.8,328.3v-21.4l230.4,19.8c-7.8-28.5-21.9-53.7-40.3-73.2l-0.3-0.3L735.9,291v-20.6L909,181
	c-7.6-34.2-24.1-64.1-46.3-86L712.8,262.4l-6.3-5.5L750.9,59c-16.1,3.2-31.4,9.6-45.1,18.8c-1.4-1.1-2.8-2.2-4.2-3.2
	c-3.1-2.3-6.3-4.6-9.5-6.8l-59.1,163h-15L562.8,15.1c-10.5-1.9-21.2-3.3-32.1-4.2c-8.8-0.7-17.7-1.1-26.7-1.2l55.4,247.1l-6.3,5.5
	L355.6,41.9c-42.4,20.1-79,48.6-107,83.1l281.5,145.6v20.6l-190.9-38.5l-1.2,1.2c-0.4,0.4-0.9,0.6-1.4,0.8
	c-4.1,3.4-8.3,6.6-12.9,9.3c-1.2,0.7-3.9,0.7-5.5,0c-0.4,0.4-0.8,0.8-1.2,1.2c-1.5,1.5-5.2,1.2-6.8,0c-1.1,0.4-2.1,1.2-3,2.5
	c-0.6,0.8-1.7,1.2-2.8,1.3c-0.8,2-1.8,3.9-2.9,5.8c0,0.2-0.1,0.4-0.2,0.7c-0.2,0.5-0.5,0.9-0.8,1.4c-3.1,6.9-6.1,13.9-10.2,20.3
	c-2,5-4.1,10.3-7.1,14.8c1.3,0.5,2.2,1.5,1.8,3c-0.8,3.2-1.8,6.1-3.5,8.8c-0.6,0.9-2.3,1.6-4,1.8c-0.5,0.8-1.1,1.6-1.6,2.4
	l254.4-21.9v22.4l-428.4,162c11.9,29.8,33,55.1,60.3,72l0,0c3.4,2.1,7,4.1,10.6,6l357.3-214.1l4.7,8.7l-208,221.5h52.6L553,390.8
	l6.3,5.5L517,584.6h59.3l41.5-162.2h15l58.8,162.2h57l-42.3-188.3l6.3-5.5l166.1,185.4c12.1-4.9,23.3-11.8,33.1-20.4l-181-192.7
	l4.7-8.7L951,483.5c0.8-5.7,1.2-11.4,1.2-17.1c1-1.9,1.9-3.7,2.8-5.6c5.4-11.4,9.5-23.3,12.5-35.6c0.7-2.8,1.2-5.5,1.8-8.4
	L735.8,328.3z"/>
<path class="st0" d="M142.2,288.3l-2.1-0.4c-2.2,2.7-4.4,5.3-6.7,8C136.3,293.3,139.2,290.8,142.2,288.3z"/>
<path class="st0" d="M105.2,356.4c0.8-0.9,1.6-1.7,2.4-2.6c0.2-0.4,0.4-0.8,0.7-1.2C107.2,353.8,106.2,355.1,105.2,356.4z"/>
<path class="st0" d="M140.6,330.4c-1.7,2.3-3.4,4.7-5.1,7c2-2.4,4-4.8,6-7.2C141.2,330.2,140.9,330.3,140.6,330.4z"/>
<path class="st0" d="M110.4,312c4-4.5,7.9-9.1,11.9-13.7c-1.4,1.6-2.8,3.2-4.2,4.7c-9.6,10.6-19,21.4-28.6,32c0.3,0,0.6-0.1,1-0.1
	C96.8,327,103.7,319.5,110.4,312z"/>
<path class="st0" d="M77.7,345.6c-0.2,0-0.4,0-0.7,0c-1.4,2-2.8,4.1-4.2,6.1c0.6-0.7,1.1-1.3,1.7-2C75.6,348.4,76.7,347,77.7,345.6z
	"/>
<path class="st0" d="M84.2,340.7c-0.5,0.6-1,1.1-1.5,1.6c-0.6,1.2-1,2.4-1.4,3.7c0.6-0.8,1.3-1.5,1.9-2.3c0.3-0.3,0.7-0.6,1.1-0.8
	c0.6-0.8,1.1-1.6,1.7-2.3C85.4,340.7,84.8,340.7,84.2,340.7z"/>
<path class="st2" d="M82.3,228.9c22.1,0,40,16.9,40,39s-17.9,41-40,41s-40-17.9-40-40S60.2,228.9,82.3,228.9z"/>
<path class="st2" d="M124.9,217c22.1,0,40,17.9,40,40s-17.9,40-40,40s-40-16.9-40-39S102.8,217,124.9,217z"/>
<path class="st2" d="M171.8,217.3c22.1,0,40,18.9,40,41c0,22.1-17.9,39-40,39s-40-17.9-40-40C131.8,235.2,149.7,217.3,171.8,217.3z"
	/>
<path class="st2" d="M187,227.9c22.1,0,40,18.9,40,41s-17.9,39-40,39s-40-17.9-40-40S164.9,227.9,187,227.9z"/>
<path class="st2" d="M212.8,232.4c22.1,0,40,17.9,40,40s-17.9,40-40,40s-40-18.9-40-41S190.7,232.4,212.8,232.4z"/>
<path class="st2" d="M223.4,200.8c22.1,0,40,17.9,40,40s-17.9,40-40,40s-40-18.9-40-41S201.3,200.8,223.4,200.8z"/>
<path class="st2" d="M211.6,164c22.1,0,40,17.9,40,40s-17.9,40-40,40s-40-18.9-40-41S189.5,164,211.6,164z"/>
<path class="st2" d="M189.4,164c22.1,0,40,17.9,40,40s-17.9,40-40,40s-40-18.9-40-41S167.3,164,189.4,164z"/>
<path class="st2" d="M176.5,147.6c22.1,0,40,17.9,40,40s-17.9,39-40,39s-40-17.9-40-40S154.4,147.6,176.5,147.6z"/>
<path class="st2" d="M143.7,165.6c22.1,0,40,16.9,40,39s-17.9,40-40,40s-40-16.9-40-39C103.6,180.9,121.5,165.6,143.7,165.6z"/>
<circle class="st2" cx="67.1" cy="240.8" r="40"/>
<path class="st2" d="M90.1,180.8c22.1,0,40,16.9,40,39s-17.9,41-40,41s-40-17.9-40-40C50.1,198.8,68,180.8,90.1,180.8z"/>
<path class="st2" d="M105,160.9c22.1,0,40,16.9,40,39s-17.9,41-40,41s-40-17.9-40-40S82.9,160.9,105,160.9z"/>
<path class="st2" d="M133.1,130.8c22.1,0,40,17.9,40,40s-17.9,39-40,39s-40-16.9-40-39S111,130.8,133.1,130.8z"/>
<path class="st2" d="M80.8,164c22.1,0,40,16.9,40,39s-17.9,41-40,41s-40-17.9-40-40S58.6,164,80.8,164z"/>
<g class="st3">
	<path d="M82.3,228.9c22.1,0,40,16.9,40,39s-17.9,41-40,41s-40-17.9-40-40S60.2,228.9,82.3,228.9z"/>
	<path d="M124.9,217c22.1,0,40,17.9,40,40s-17.9,40-40,40s-40-16.9-40-39S102.8,217,124.9,217z"/>
	<path d="M171.8,217.3c22.1,0,40,18.9,40,41c0,22.1-17.9,39-40,39s-40-17.9-40-40C131.8,235.2,149.7,217.3,171.8,217.3z"/>
	<path d="M187,227.9c22.1,0,40,18.9,40,41s-17.9,39-40,39s-40-17.9-40-40S164.9,227.9,187,227.9z"/>
	<path d="M212.8,232.4c22.1,0,40,17.9,40,40s-17.9,40-40,40s-40-18.9-40-41S190.7,232.4,212.8,232.4z"/>
	<path d="M223.4,200.8c22.1,0,40,17.9,40,40s-17.9,40-40,40s-40-18.9-40-41S201.3,200.8,223.4,200.8z"/>
	<path d="M211.6,164c22.1,0,40,17.9,40,40s-17.9,40-40,40s-40-18.9-40-41S189.5,164,211.6,164z"/>
	<path d="M189.4,164c22.1,0,40,17.9,40,40s-17.9,40-40,40s-40-18.9-40-41S167.3,164,189.4,164z"/>
	<path d="M176.5,147.6c22.1,0,40,17.9,40,40s-17.9,39-40,39s-40-17.9-40-40S154.4,147.6,176.5,147.6z"/>
	<path d="M143.7,165.6c22.1,0,40,16.9,40,39s-17.9,40-40,40s-40-16.9-40-39C103.6,180.9,121.5,165.6,143.7,165.6z"/>
	<circle cx="67.1" cy="240.8" r="40"/>
	<path d="M90.1,180.8c22.1,0,40,16.9,40,39s-17.9,41-40,41s-40-17.9-40-40C50.1,198.8,68,180.8,90.1,180.8z"/>
	<path d="M105,160.9c22.1,0,40,16.9,40,39s-17.9,41-40,41s-40-17.9-40-40S82.9,160.9,105,160.9z"/>
	<path d="M133.1,130.8c22.1,0,40,17.9,40,40s-17.9,39-40,39s-40-16.9-40-39S111,130.8,133.1,130.8z"/>
	<path d="M80.8,164c22.1,0,40,16.9,40,39s-17.9,41-40,41s-40-17.9-40-40S58.6,164,80.8,164z"/>
</g>
<path class="st4" d="M102.1,339.1c0,0-24.5-20.6-12.4-49.9l12.1-4.5l13.1,39.5L102.1,339.1z"/>
<path class="st5" d="M100.8,283.3l-2.9,1.1l12.9,38.7l-11.3,13.2c0.9,0.9,1.5,1.4,1.5,1.4l12.9-15L100.8,283.3z"/>
<path class="st6" d="M133.3,351.8c70.5,0,127.7,17.3,127.7,37.5s-57.2,35.5-127.7,35.5S5.5,409.5,5.5,389.3S62.7,351.8,133.3,351.8z
	"/>
<path class="st2" d="M55.7,329.8c0,0,8,8,3.5,19.8c-4.5,11.8,7.7,31.5,7.7,31.5l-0.4-0.1c-16.4-2.9-24.5-21.6-15.4-35.5
	C54.5,340.3,57.3,334.3,55.7,329.8z"/>
<path class="st7" d="M55.7,329.8c0,0,4.5,9.8,0,17.7s-0.8,30.3,11.2,33.5"/>
<path class="st2" d="M41.6,362c0,0,9.1-1.4,9.9,6.7C52.3,376.9,69,378,69,378l-0.3,0.2c-13.7,9-26.9,5.7-24.9-6.2
	C44.5,367.5,44.4,363,41.6,362z"/>
<path class="st8" d="M41.6,362c0,0,9.1-1.4,9.9,6.7C52.3,376.9,69,378,69,378l-0.3,0.2c-13.7,9-26.9,5.7-24.9-6.2
	C44.5,367.5,44.4,363,41.6,362z"/>
<path class="st7" d="M41.6,362c0,0,7.1,1.6,6.5,8s10.5,14.1,20.9,8"/>
<path class="st4" d="M212.7,296.3l-3.2,12.7c0,0-22.5,1.9-37.5,0.1c-2.6-0.4-5.2-1.3-7.5-2.7c-1.3-0.7-3.3-1.1-6,1
	c-4.7,3.5-27.6,31.7-23.9,61c0.6,4.5,4.2,8.1,8.7,8.7l0,0c4.6,0.6,9,2.3,12.8,4.8l11.4,7.6L51,387.9l12.1-14.6c0,0,8.3-7,14.6-7.6
	c1.9-0.2,3.4-1.9,4.6-4.2c7.3-13.6,15.9-26.3,25.3-38.5c6.8-8.9,12.6-19.2,12.1-25.1c-1.3-14,0-36.9,0-36.9l24.2-3.2
	c0,0-3.2,30.6,26.1,38.2S212.7,296.3,212.7,296.3z"/>
<g class="st3">
	<path d="M192.9,302c0,0-13.4,7.3-42.6-0.3c-29.2-7.6-26.1-38.2-26.1-38.2l-4.6,0.6c0.1-2,0.2-3.1,0.2-3.1l24.2-3.2
		c0,0-3.2,30.6,26.1,38.2c29.3,7.6,42.6,0.4,42.6,0.4l-3.2,12.7c0,0-8.6,1.1-18.7,1.5L192.9,302z"/>
	<path d="M136.4,387.6c-3.8-2.6-8.2-4.2-12.8-4.8l0,0c-4.5-0.6-8.1-4.2-8.7-8.7c-3.7-29.3,19.2-57.5,23.9-61
		c5.1-3.8,7.6,0.6,7.6,0.6c1.8,0.5,3.6,0.8,5.5,1c-8.2,11-20.1,32-17.3,53.6c0.6,4.5,4.2,8.1,8.7,8.7l0,0c4.6,0.6,9,2.3,12.8,4.8
		l11.4,7.6l-29.3-0.6L136.4,387.6z"/>
</g>
<path class="st9" d="M196.3,389.3c0,0,4.8-16.4-0.9-28.5c-2.4-5.1-3.2-10.8-2.1-16.3c0.5-2.6,1.3-5.2,2.3-7.6"/>
<path class="st2" d="M192.1,329.2c0,2,3.6,7.8,3.6,7.8s3.6-5.8,3.6-7.8c-0.1-2-1.8-3.6-3.8-3.5C193.7,325.7,192.1,327.3,192.1,329.2
	L192.1,329.2z"/>
<path class="st2" d="M186,339.4c1.1,1.7,7.3,5.6,7.3,5.6s-0.1-6.9-1.2-8.6c-1.2-1.6-3.4-3-5.1-1.9
	C185.5,335.6,185.1,337.7,186,339.4z"/>
<path class="st2" d="M186.3,358.4c1.8,0.9,8.7,1.3,8.7,1.3s-3.6-5.9-5.4-6.8c-1.8-1-4-1.3-4.9,0.5c-1,1.8-0.3,4,1.5,4.9
	C186.2,358.4,186.3,358.4,186.3,358.4L186.3,358.4z"/>
<path class="st2" d="M189.8,373.8c1.6,1.2,8.5,1.7,8.5,1.7s-2.5-6.4-4.1-7.6s-3.9-0.9-5.1,0.8C187.8,370.3,188.1,372.6,189.8,373.8
	L189.8,373.8z"/>
<path class="st2" d="M201,345.4c-1.4,1.4-8.2,2.9-8.2,2.9s1.6-6.7,3.1-8.1c1.4-1.4,3.8-1.4,5.2,0.1S202.5,344,201,345.4L201,345.4
	L201,345.4z"/>
<path class="st2" d="M204.8,362.2c-1.8,0.9-8.7,0.3-8.7,0.3s3.6-5.9,5.4-6.8c1.8-0.9,4-0.1,4.9,1.7
	C207.2,359.2,206.6,361.3,204.8,362.2L204.8,362.2z"/>
<path class="st2" d="M206.3,379.1c-1.6,1.2-8.5,1.7-8.5,1.7s2.5-6.4,4.1-7.6s3.9-0.9,5.1,0.8C208.3,375.7,207.9,377.9,206.3,379.1
	L206.3,379.1z"/>
<path class="st10" d="M206.9,387.7c0,0-8.8-1.8-11.2-4.1c-2.4-2.4-13-7.5-14.1-4.5c-1.2,3-15.9,13-5.9,14.7
	c10,1.8,23.6,3.4,26.5,2.2S206.9,387.7,206.9,387.7z"/>
<path class="st11" d="M175.6,392.7c10,1.8,23.6,3.4,26.5,2.2c2.2-0.9,3.8-5.2,4.4-7.2l0.3,0.1c0,0-1.8,7.1-4.7,8.2
	c-2.9,1.2-16.5-0.4-26.5-2.2c-2.9-0.5-3.7-1.7-3.4-3.2C172.5,391.5,173.5,392.3,175.6,392.7z"/>
<path class="st10" d="M124.8,384.1c0,0-13.5-1.7-17.1-5.3s-19.8-9.9-21.6-5.4s-24.3,19.8-9,22.5s36,2.6,40.5,0.8
	C122,394.9,124.8,384.1,124.8,384.1z"/>
<path class="st11" d="M77.1,394.2c15.3,2.7,36,2.6,40.5,0.8c3.4-1.4,5.8-8,6.7-11l0.5,0.1c0,0-2.7,10.8-7.2,12.6
	c-4.5,1.8-25.2,1.9-40.5-0.8c-4.4-0.8-5.7-2.6-5.2-4.9C72.3,392.5,73.8,393.6,77.1,394.2z"/>
<path class="st2" d="M33.5,303.4c0,1.6,0.6,3.2,1.5,4.5c0.9-1.3,1.4-2.9,1.5-4.5c0-2.5-0.6-4.5-1.5-4.5S33.5,301,33.5,303.4z"/>
<path class="st2" d="M144.1,305.3c0.1,1.6,0.6,3.2,1.5,4.5c0.9-1.3,1.4-2.9,1.5-4.5c0-2.5-0.7-4.5-1.5-4.5S144.1,302.8,144.1,305.3z
	"/>
<path class="st2" d="M23.5,345.6c-0.9,1.3-1.4,2.9-1.5,4.5c1.5-0.5,2.8-1.5,3.8-2.8c1.5-2,2.1-4,1.5-4.5
	C26.7,342.4,25,343.6,23.5,345.6z"/>
<path class="st2" d="M70.3,322.1c0.1,1.6,0.6,3.2,1.5,4.5c0.9-1.3,1.4-2.9,1.5-4.5c0-2.5-0.7-4.5-1.5-4.5S70.3,319.6,70.3,322.1z"/>
<path class="st2" d="M97.7,312.1c0.1,1.6,0.6,3.2,1.5,4.5c0.9-1.3,1.4-2.9,1.5-4.5c0-2.5-0.7-4.5-1.5-4.5
	C98.4,307.6,97.7,309.6,97.7,312.1z"/>
<path class="st2" d="M114.7,320.2c-0.8,1.4-1.1,3-1,4.6c1.5-0.7,2.7-1.8,3.5-3.2c1.2-2.2,1.7-4.2,1-4.6
	C117.5,316.6,115.9,318.1,114.7,320.2z"/>
<path class="st2" d="M247.9,278.1c-0.8,1.4-1.1,3-1,4.6c1.5-0.7,2.7-1.8,3.5-3.2c1.2-2.2,1.7-4.2,1-4.6
	C250.7,274.6,249.1,276,247.9,278.1z"/>
<path class="st2" d="M188,386.9c-0.8,1.4-1.1,2-1,3.7c1.5-0.7,2.7-0.8,3.5-2.2c1.2-2.2,1.7-4.2,1-4.6
	C190.9,383.3,189.3,384.8,188,386.9z"/>
<path class="st2" d="M127.4,361.6c1.2,1.1,2.7,1.8,4.3,2c-0.4-1.6-1.1-3-2.3-4.1c-1.8-1.7-3.7-2.6-4.3-2S125.6,359.9,127.4,361.6z"
	/>
<path class="st5" d="M127.4,361.6c1.2,1.1,2.7,1.8,4.3,2c-0.4-1.6-1.1-3-2.3-4.1c-1.8-1.7-3.7-2.6-4.3-2S125.6,359.9,127.4,361.6z"
	/>
<path class="st2" d="M100.7,360c1.2,1.1,2.7,1.8,4.3,2c-0.4-1.6-1.1-3-2.3-4.1c-1.8-1.7-3.7-2.6-4.3-2S98.9,358.3,100.7,360z"/>
<path class="st5" d="M100.7,360c1.2,1.1,2.7,1.8,4.3,2c-0.4-1.6-1.1-3-2.3-4.1c-1.8-1.7-3.7-2.6-4.3-2S98.9,358.3,100.7,360z"/>
<path class="st2" d="M95.6,387.1c1.2,1.1,2.7,1.8,4.3,2c-0.4-1.6-1.2-3-2.3-4.2c-1.8-1.7-3.7-2.6-4.3-2S93.8,385.3,95.6,387.1z"/>
<path class="st5" d="M95.6,387.1c1.2,1.1,2.7,1.8,4.3,2c-0.4-1.6-1.2-3-2.3-4.2c-1.8-1.7-3.7-2.6-4.3-2S93.8,385.3,95.6,387.1z"/>
<path class="st2" d="M147.8,367.1c1.2,1.1,2.7,1.8,4.3,2c-0.4-1.6-1.1-3-2.3-4.1c-1.8-1.7-3.7-2.6-4.3-2S146,365.4,147.8,367.1z"/>
<path class="st5" d="M147.8,367.1c1.2,1.1,2.7,1.8,4.3,2c-0.4-1.6-1.1-3-2.3-4.1c-1.8-1.7-3.7-2.6-4.3-2S146,365.4,147.8,367.1z"/>
<path class="st2" d="M220.3,334.8c0.1,1.6,0.6,3.2,1.5,4.5c0.9-1.3,1.4-2.9,1.5-4.5c0-2.5-0.7-4.5-1.5-4.5S220.3,332.3,220.3,334.8z
	"/>
<path class="st2" d="M173.4,354.3c1.2,1.1,2.7,1.8,4.3,2c-0.4-1.6-1.1-3-2.3-4.1c-1.8-1.7-3.7-2.6-4.3-2S171.5,352.6,173.4,354.3z"
	/>
<path class="st5" d="M173.4,354.3c1.2,1.1,2.7,1.8,4.3,2c-0.4-1.6-1.1-3-2.3-4.1c-1.8-1.7-3.7-2.6-4.3-2S171.5,352.6,173.4,354.3z"
	/>
<path class="st2" d="M178.2,324.6c1.4,1.3,3.5,1.3,3.5,1.3s-0.1-2.1-1.5-3.4s-3-1.9-3.5-1.3C176.1,321.8,176.8,323.3,178.2,324.6z"
	/>
<path class="st5" d="M178.2,324.6c1.4,1.3,3.5,1.3,3.5,1.3s-0.1-2.1-1.5-3.4s-3-1.9-3.5-1.3C176.1,321.8,176.8,323.3,178.2,324.6z"
	/>
<path class="st2" d="M222.6,367.8c1.2,1.1,2.7,1.8,4.3,2c-0.4-1.6-1.1-3-2.3-4.1c-1.8-1.7-3.7-2.6-4.3-2
	C219.8,364.3,220.8,366.1,222.6,367.8z"/>
<path class="st5" d="M222.6,367.8c1.2,1.1,2.7,1.8,4.3,2c-0.4-1.6-1.1-3-2.3-4.1c-1.8-1.7-3.7-2.6-4.3-2
	C219.8,364.3,220.8,366.1,222.6,367.8z"/>
<linearGradient id="SVGID_1_" gradientUnits="userSpaceOnUse" x1="-1056.1063" y1="449.3288" x2="-1056.1063" y2="343.45" gradientTransform="matrix(-1 0 0 1 -965 -43.45)">
	<stop  offset="0" style="stop-color:#808080;stop-opacity:0.25"/>
	<stop  offset="0.54" style="stop-color:#808080;stop-opacity:0.12"/>
	<stop  offset="1" style="stop-color:#808080;stop-opacity:0.1"/>
</linearGradient>
<path class="st12" d="M65.6,387.1c0.9-0.3,2.3-0.7,3.4-0.5c1-0.4,3.5-1.4,5.1-2.8c0-1.4,0-2.9,0.1-4.3c0.9-9.7-1.1-16.1-1.1-16.1
	s-1.5-4.9-1.3-8.9c-0.1,0.2-0.2,0.3-0.2,0.3c-0.1-3.5-1.3-7.1-2.2-9.3h-0.1l-1-2.4c-0.1-0.1-0.1-0.3-0.2-0.4l-0.2-0.4l0,0v-0.2l0,0
	c-0.6-2.7-1.1-9.1-1.1-9.1c-1.7-6.7,2.4-10.8,2.4-10.8l6.9-5.9c0,0.1-0.1,0.2-0.1,0.2l0.1-0.1c0.1-0.3,0.2-0.6,0.3-1
	c-0.2-0.2-0.5-0.4-0.7-0.6c-0.8-0.7-1.3-1.7-1.5-2.7c-0.1-0.8-0.2-1.7-0.1-2.5l0.1-2.8c0-0.6,0.1-1.1,0.2-1.7
	c0.5-2.3,2.8-3.8,5.2-3.9c0.7,0,1.5,0,2.2,0.1c0.6,0,1.2,0.1,1.8,0c0.1,0,0.1,0,0.2-0.1c0.1-0.1,0.1-0.1,0.1-0.2
	c0-0.3-0.1-0.5-0.2-0.7c-0.1-0.1-0.2-0.1-0.3-0.2h0.2c-0.1-0.1-0.2-0.1-0.3-0.1c0.6,0.1,1.2,0.3,1.7,0.6c0.1,0.1,0.3,0.2,0.4,0.3
	c0.3,0.3,0.5,0.7,0.6,1.1c0.3-0.2,0.5-0.5,0.6-0.9c0-0.1,0-0.3,0-0.4l0.1,0.2l0,0c0.4,0.5,0.7,1.2,0.9,1.8c0.1-0.1,0.2-0.3,0.2-0.5
	c0,0.1,0.1,0.2,0.1,0.3c0-0.1,0-0.1,0-0.2c0.3,0.8,0.4,1.7,0.4,2.5c0,0.9-0.4,2.2-1.3,2.5h-0.1c1.7,2.7,0.9,6.2-1.7,7.9
	c-0.7,0.4-1.4,0.7-2.2,0.8c0,0.1,0,0.2,0,0.3l0,0c0,0.2,0,0.5-0.1,0.7c0.2,0.2,0.5,0.4,0.8,0.6c0.8,0.5,1.6,0.7,2.5,0.8
	c1.1,0.1,2.1,0.4,3,0.9c1.1,0.6,2.3,1.5,2.7,2.6c0.6,1.8,4.1,4.6,6.4,5h0.8h0.1l0,0h0.2h0.1l0,0h0.2c0,0,0,0.1,0.1,0.3
	c1.2-0.4,3.7-1.5,6.9-4.5c3.6-3.3,8.5-3.6,10.4-3.2c0.2,0,0.3,0.2,0.2,0.4c0,0.1-0.1,0.2-0.2,0.2c-0.8,0.4-2,1-2.5,1.1
	c0,0,1.1,1.2-0.1,1.8c-0.3,0.1-0.6,0.1-0.9-0.1c-0.6-0.4-2.2,0.5-4.5,1c0,0-6.6,7.9-9.9,8.9c-0.1,0.1-0.2,0.3-0.3,0.4h-0.2l0,0l0,0
	v0.2c0,0-5.1-0.3-6.8-2.1c-0.1-0.1-0.2-0.2-0.3-0.3l1.8,22.4l0,0v0.2h-1.3c-0.1,2.7,0,5.5,0.3,8.2v14.6c0,0,0.1,1.3-2.6,3.1
	c-2.8,1.9-5.5,4-8.1,6.3l-0.3,0.3c0.5,4.5,1.5,12.8,2.4,13.1l-0.5,0.1c0.9,1.1,3.5,4.3,4.3,4.4c1,0.1,1.6,1.6,0,1.9
	c-3.2,0.6-6.5,0.2-9.5-0.9c-0.6-0.2-1-0.9-0.9-1.5l0.3-2.4c-0.1,0-0.1,0.1-0.1,0.1c-0.2,0.6,0-0.9,0-0.9c-0.9-2.8-1.6-5.7-2.1-8.6
	l-3.2,2.7l-0.2-0.2c-0.8,1.8-2.2,5.4-1.8,8c0.4,3.6-3.6,0.4-3.2-1.7c0.3-1.7-1.2-9-1.8-11.8C64.6,387.9,65,387.3,65.6,387.1z"/>
<path class="st13" d="M98.6,328.1c0,0,3-0.5,7.5-4.6c3.5-3.2,8.3-3.6,10.1-3.2c0.2,0,0.3,0.2,0.2,0.4c0,0.1-0.1,0.2-0.2,0.2
	c-0.7,0.4-1.9,1-2.4,1.1c0,0,1.1,1.2-0.1,1.8c-0.3,0.1-0.6,0.1-0.9-0.1c-0.6-0.4-2.2,0.5-4.4,1c0,0-8.9,10.2-11,8.7L98.6,328.1z"/>
<path class="st13" d="M83.2,310.5c0,0-0.8,3.5,0,6l-3.7,0.5l-3.3-1.7v-2.2c1-2.3,1.4-4.7,1.1-7.2L83.2,310.5z"/>
<path class="st14" d="M72.7,387c0,0-2.7,5.3-2.3,8.8s-3.5,0.4-3.1-1.7c0.3-1.7-1.2-8.8-1.7-11.5c-0.1-0.6,0.2-1.2,0.8-1.4
	c1.2-0.4,3.3-0.9,4.4-0.1C72.2,382.4,72.7,387,72.7,387z"/>
<path class="st14" d="M82.9,397.9c0,0,3.5,4.6,4.5,4.7c0.9,0.1,1.6,1.6,0,1.9c-3.1,0.5-6.3,0.2-9.3-0.9c-0.6-0.2-1-0.9-0.9-1.5
	l0.6-4.4L82.9,397.9z"/>
<path class="st15" d="M88.7,349.4l3.4,0.5c-0.5,4-0.5,8,0,11.9V376c0,0,0.1,1.3-2.5,3.1c-2.7,1.9-5.4,3.9-7.9,6.1l-9.4,8.2
	c0,0-3.7-4.6-3.2-7.3c0,0,6.2-2,7.1-5.2c0.5-1.8,2.9-3.4,4.9-4.4c2.6-1.2,3.9-4.1,3.2-6.9c-0.1-0.5-0.3-0.9-0.5-1.3
	c-1.7-2.9-4.1-9.4-4.1-9.4l4.6-8.7L88.7,349.4z"/>
<path class="st15" d="M83.8,398.2c0,0-6.1,1-6.3,1.7c-0.2,0.6,0-0.8,0-0.8S74,388.4,74.8,379s-1-15.7-1-15.7s-2.2-7.1-0.9-11.1
	c1.2-4.1,14.3-2.3,14.3-2.3s-4.6,10.7-4.5,15.8c0,0-0.5,15.4-1.5,17.1C81.2,382.7,82.6,397.7,83.8,398.2z"/>
<path class="st16" d="M83,318.2c0,0-0.6,3.8-6.9,2.2l4.2,31.6c0,0,12,0.4,11.9-1l-2.5-19.1L83,318.2z"/>
<path class="st5" d="M82.9,318c0.8,0.8,1.9,1.3,3,1.4c1,0.1,2,0.4,2.9,0.9c1.1,0.6,2.2,1.5,2.6,2.5c0.7,2.1,5.3,5.5,7.4,4.8
	l-0.7,6.2c0,0-5.9-0.3-7-2.6l1.8,22.2h-1.6c0,0-0.8-6-1.5-7.3c-0.6-1.2-1.9-8.1-2-9.8c-0.1-1.7-1.7-11.2-3-12.9l-2-4.9L82.9,318z"/>
<path class="st5" d="M82.9,318.3c0.9,0.7,2,1.2,3.2,1.3c1,0.1,2,0.4,2.9,0.9c1.1,0.6,2.2,1.5,2.6,2.5c0.7,2.1,5.3,5.5,7.4,4.8
	l-0.7,6.2c0,0-5.9-0.3-7-2.6l1.8,22.2h-1.6c0,0-0.8-6-1.5-7.3c-0.6-1.2-1.9-8.1-2-9.8c-0.1-1.7-1.7-11.2-3-12.9l-2.2-4.8L82.9,318.3
	z"/>
<path class="st17" d="M82.9,318.1c0.9,0.7,2,1.2,3.2,1.3c1,0.1,2,0.4,2.9,0.9c1.1,0.6,2.2,1.5,2.6,2.5c0.7,2.1,5.3,5.5,7.4,4.8
	l-0.7,6.2c0,0-5.9-0.3-7-2.6l1.8,22.2h-1.6c0,0-0.8-6-1.5-7.3c-0.6-1.2-1.9-8.1-2-9.8c-0.1-1.7-1.7-11.2-3-12.9l-2.2-4.8L82.9,318.1
	z"/>
<path class="st5" d="M77.6,309.1c0.1-1-0.1-1.6-0.3-2.7l5.9,4.5c0,0-0.1,0.6-0.3,1.5c-0.3,0-0.6,0.1-0.9,0.1
	C80,312.4,78.6,310.8,77.6,309.1z"/>
<circle class="st13" cx="82.1" cy="311.5" r="5.6"/>
<path class="st5" d="M88.2,306c0-0.9-0.1-1.9-0.5-2.8c0.2,0.3,0.1,0.7-0.1,0.9c-0.2-1-0.7-1.8-1.4-2.5c0.4,0.1,0.6,0.6,0.5,1
	c-0.1,0.4-0.4,0.7-0.7,1c0-0.6-0.3-1.2-0.9-1.5c-0.5-0.3-1.1-0.5-1.7-0.6c0.4,0.1,0.7,0.6,0.6,1c0,0.1,0,0.1-0.1,0.2
	c-0.1,0-0.1,0.1-0.2,0.1c-0.6,0-1.2,0-1.8,0c-0.7-0.1-1.4-0.1-2.2-0.1c-2.3,0.1-4.5,1.6-5,3.9c-0.1,0.5-0.2,1.1-0.2,1.6l-0.1,2.8
	c-0.1,0.8,0,1.6,0.1,2.4c0.3,1.5,1.3,2.8,2.6,3.5c0.8-1.2,0.9-2.7,1.2-4.1c0-0.3,0.2-0.6,0.4-0.9c0.2-0.3,0.5-0.4,0.9-0.3
	c0.3,0.1,0.4,0.4,0.3,0.7c0,0,0,0.1-0.1,0.1c0.2,0.3,0.7,0.1,0.9-0.2c0.7-0.7,1.2-1.5,1.4-2.5c0.1-0.5,0.2-1.1,0.7-1.2
	c0.2,0,0.3-0.1,0.5,0c1,0.1,2.5,0.5,3.5,0.2C87.9,308.1,88.2,306.8,88.2,306z"/>
<path class="st18" d="M88.1,305.9c0-0.9-0.1-1.9-0.5-2.8c0.2,0.3,0.1,0.7-0.1,0.9c-0.2-1-0.7-1.8-1.4-2.5c0.4,0.1,0.6,0.6,0.5,1
	c-0.1,0.4-0.4,0.7-0.7,1c0-0.6-0.3-1.2-0.9-1.5c-0.5-0.3-1.1-0.5-1.7-0.6c0.4,0.1,0.7,0.6,0.6,1c0,0.1,0,0.1-0.1,0.2
	c-0.1,0-0.1,0.1-0.2,0.1c-0.6,0-1.2,0-1.8,0c-0.7-0.1-1.4-0.1-2.2-0.1c-2.3,0.1-4.5,1.6-5,3.9c-0.1,0.5-0.2,1.1-0.2,1.6l-0.1,2.8
	c-0.1,0.8,0,1.6,0.1,2.4c0.3,1.5,1.3,2.8,2.6,3.5c0.8-1.2,0.9-2.7,1.2-4.1c0-0.3,0.2-0.6,0.4-0.9c0.2-0.3,0.5-0.4,0.9-0.3
	c0.3,0.1,0.4,0.4,0.3,0.7c0,0,0,0.1-0.1,0.1c0.2,0.3,0.7,0.1,0.9-0.2c0.7-0.7,1.2-1.6,1.4-2.5c0.1-0.5,0.2-1.1,0.7-1.2
	c0.2,0,0.3-0.1,0.5,0c1,0.1,2.5,0.5,3.5,0.2C87.8,308,88.1,306.7,88.1,305.9z"/>
<path class="st5" d="M99.3,327.6c0,0,0.8,3.8-0.7,6.2l-0.9-0.1l0.5-6.1L99.3,327.6z"/>
<path class="st17" d="M99.1,327.6c0,0,0.8,3.8-0.7,6.2l-0.9-0.1l0.5-6.1L99.1,327.6z"/>
<path class="st5" d="M76.8,312.1l-6.7,5.8c0,0-3.9,4.1-2.3,10.6c0,0,0.7,9.6,1.6,10c0,0,2.9,5.8,3.1,11.3c0,0,3.9-7.8,5.7-3.1
	c1.8,4.8,5.9,5.5,5.9,5.5L81.8,324C81.7,323.9,75.9,313.9,76.8,312.1z"/>
<path class="st17" d="M76.5,312.1l-6.7,5.8c0,0-3.9,4.1-2.3,10.6c0,0,0.7,9.6,1.6,10c0,0,2.9,5.8,3.1,11.3c0,0,4.1-8.3,5.9-3.5
	s5.7,5.9,5.7,5.9L81.5,324C81.5,323.9,75.7,313.9,76.5,312.1z"/>
<path class="st13" d="M73.5,336.5c0,0-1.7-1.1-4.4,2l6.7,12l2.2-3.4C78,347.1,73.3,337.8,73.5,336.5z"/>
<path class="st5" d="M75.1,337.1c0,0-3.7,4.1-5.1,3.5l-1.3-3.1l5-2.1L75.1,337.1z"/>
<path class="st17" d="M75.1,336.9c0,0-3.7,4.1-5.1,3.5l-1.3-3.1l5-2.1L75.1,336.9z"/>
<path class="st5" d="M77.8,346.3c0,0-1.7,3.6-2.7,3.8l1.4,1.6l2-3.7L77.8,346.3z"/>
<path class="st19" d="M77.9,346.4c0,0-1.7,3.6-2.7,3.8l1.4,1.6l2-3.7L77.9,346.4z"/>
<path class="st5" d="M74.6,324.3c0,0-0.2,7.5,0.6,10.3"/>
<path class="st5" d="M91.4,330.7c0,0-1.3-0.4-1.3-1.4"/>
<linearGradient id="SVGID_2_" gradientUnits="userSpaceOnUse" x1="-1121.1727" y1="452.9753" x2="-1121.1727" y2="365.5681" gradientTransform="matrix(-1 0 0 1 -965 -43.45)">
	<stop  offset="0" style="stop-color:#808080;stop-opacity:0.25"/>
	<stop  offset="0.54" style="stop-color:#808080;stop-opacity:0.12"/>
	<stop  offset="1" style="stop-color:#808080;stop-opacity:0.1"/>
</linearGradient>
<path class="st20" d="M132.2,341.9c0.5,1.2,1.7,2,2.4,3.2c-0.3,1.8-0.4,3.5-0.4,5.3c0,1.9,0.2,3.9,0.6,5.8l0.8,3.9
	c0,0.3,0.1,0.7,0.3,0.9c-0.3,1.1-0.7,2.2-1.3,3.3c-2.9,5.4-1.2,12.3-0.8,13.1c0,0.1,0.1,0.2,0.2,0.2c0,0.1,0.1,0.1,0.1,0.2
	c0.4,0.7,1.4-0.4,2.8,1.5c0.2,0.3,0.4,0.6,0.5,0.9c0.1,0.2,0.2,0.4,0.4,0.5c2,3.5,11.9,3.8,18.4-3.9c0.3,0.2,0.6,0.3,0.9,0.6
	c-1.5,3.2,2,11.2,3.6,15.6c0.3,0.8,0.6,1.7,0.7,2.5c-1.3,0.4-2.1,3-2.1,3v0.2v0.1l0.6,5.7h1.1l0.3-3.7l2.9,5.6c0,0,2,0.2,4,0.3v1.7
	l0.8-0.1c0,0,0-0.1,0-0.3l0,0c0,0-0.1-0.6-0.1-1.3c1,0,2-0.1,3-0.3c0.5,0.9,0.9,1.8,1.3,2.7c3.3,1.2,6.8-0.5,7.1-0.7
	c0,0,0-0.1-0.2-0.2l0.2-0.1c0.3-0.1-3.5-1.8-3.5-1.8h-0.1c-0.2-0.9-0.3-1.8-0.3-2.7c-0.1-1.6-0.6-3.2-1.4-4.6c0,0-5.1-18.5-5.7-19.2
	l-0.1-0.1l0,0v-0.1l0,0v-0.1v-0.1v-0.1v-0.1l-0.1-0.1V379l-0.1-0.2l0,0l-0.1-0.2v-0.1l-0.1-0.1v-0.1v-0.1v-0.1V378v-0.1l-0.1-0.2
	v-0.1l-0.1-0.2l0,0l-0.1-0.2v-0.1v-0.2v-0.1v-0.1v-0.1v-0.1v-0.1c-0.2-0.8-0.3-1.6-0.3-2.4c0,0,0,0,0-0.1s0-0.1,0-0.1v-0.1v-0.1
	v-0.1v-0.1c0-0.1-0.1-0.3-0.1-0.4v-0.1l-0.1-0.1v-0.1l-0.1-0.1v-0.1c0.1,0.1,0.2,0.3,0.3,0.4c-0.3-1-0.8-1.9-1.4-2.7
	c-0.6-0.9-1.3-1.7-2.2-1.7c-0.7-0.1-1.4-0.2-2.1-0.5c-1.2-1.2-2.7-2.5-2.7-2.5l-2.2-2.6h0.1l-0.2-0.3h0.2l-2.9-4.9
	c0.2-1.9,0.3-3.8,0.1-5.8c1.1-0.9,1.7-2.3,1.7-3.8c0-1-0.3-2-0.2-3s0.6-1.8,0.9-2.7c0.3-1,0.3-2.2,0-3.2s-0.8-1.8-1-2.8
	c-0.2-0.8-0.2-1.7-0.2-2.5l0.1-3.7c0.1-0.8,0-1.6-0.2-2.4c-0.3-0.8-0.8-1.6-1.4-2.2c-0.4-0.4-0.8-0.7-1.3-1.1
	c-1.6-1.2-3.5-2.1-5.5-2.5c-2-0.4-4.1-0.1-6,0.8c-2.2,1.2-3.7,3.3-4.5,5.6c-0.9,2.3-1.3,4.8-2.5,7c-0.5,1-1.2,1.9-1.7,3
	C132.1,339.7,131.8,340.8,132.2,341.9z M147.7,350h-0.1v-0.2L147.7,350z M155.9,365.5c-0.7-0.4-1.4-0.8-2-1.3
	c0.1-0.1,0.2-0.2,0.3-0.2C154.6,364.4,155.3,364.9,155.9,365.5L155.9,365.5z M169.9,399.4v-0.1c-0.9-0.2-1.3,0.4-1.6,1.1
	c-0.6-1.7-1.3-3.3-2.1-4.9c-1.2-2.3-1.8-7.3-1.8-7.3s0-0.1,0-0.3c1.6,2.9,3.9,7.1,4.9,8.6C170.1,397.7,170.1,398.7,169.9,399.4
	L169.9,399.4z"/>
<rect x="144.7" y="353.7" class="st17" width="9.1" height="10.8"/>
<path class="st13" d="M155.9,361.9l3,3.7c0,0,5.7,5,3.3,3.8c-0.8-0.4-3.6-1.2-4.8-2.5c-1.3-1.3-2.6-2.5-4-3.6L155.9,361.9z"/>
<path class="st5" d="M153.4,356.9l3.6,6.2c0,0-2.6,0.1-3.2,1.5s-1.8-3.8-1.8-3.8L153.4,356.9z"/>
<path class="st17" d="M153.4,356.6l3.6,6.2c0,0-2.6,0.1-3.2,1.5s-1.8-3.8-1.8-3.8L153.4,356.6z"/>
<path class="st18" d="M147.3,325.6c0.4,0.1,0.7,0.4,1,0.6l1.5,1.1c0.8,0.6,1.6,1.2,2.1,2.1c0.6,1.2,0.4,2.6,0,3.8
	c-0.4,1.2-0.9,2.5-1,3.8c0,0.8,0.1,1.6-0.1,2.4c-0.2,0.9-0.8,1.6-1.5,2.1c-0.8,0.5-1.6,0.9-2.4,1.2c-1.3,0.5-2.7,1-4.1,0.9
	c-2-0.1-3.7-1.3-4.6-3c-0.1-0.2-0.2-0.4-0.2-0.6c0.1-0.3,0.2-0.5,0.3-0.8c0.7-1.1,0.5-2.5,0.3-3.8c-0.3-1.7-0.4-3.4,0-5.1
	c0.4-1.5,1.4-3.3,2.9-3.9c0.8-0.2,1.6-0.4,2.4-0.5C144.8,325.7,146.2,325.2,147.3,325.6z"/>
<path class="st5" d="M147.3,325.6c0.4,0.1,0.7,0.4,1,0.6l1.5,1.1c0.8,0.6,1.6,1.2,2.1,2.1c0.6,1.2,0.4,2.6,0,3.8
	c-0.4,1.2-0.9,2.5-1,3.8c0,0.8,0.1,1.6-0.1,2.4c-0.2,0.9-0.8,1.6-1.5,2.1c-0.8,0.5-1.6,0.9-2.4,1.2c-1.3,0.5-2.7,1-4.1,0.9
	c-2-0.1-3.7-1.3-4.6-3c-0.1-0.2-0.2-0.4-0.2-0.6c0.1-0.3,0.2-0.5,0.3-0.8c0.7-1.1,0.5-2.5,0.3-3.8c-0.3-1.7-0.4-3.4,0-5.1
	c0.4-1.5,1.4-3.3,2.9-3.9c0.8-0.2,1.6-0.4,2.4-0.5C144.8,325.7,146.2,325.2,147.3,325.6z"/>
<path class="st13" d="M164.1,369.4c0,0,3.7,3,2.9,5.2c0,0,1.1,4.2,1.6,4.9c0.5,0.7,5.4,18.8,5.4,18.8c0.8,1.4,1.3,2.9,1.3,4.5
	c0.1,2.6,0.4,4.2,2.1,4h-3.8l-2.8-2l-1.6-3.6l-0.4-1.8c0,0,1.2-1.5-0.3-3.7c-1.4-2.2-6.2-11.4-6.2-11.4l-2.6-8.6l-2.1-3.6
	L164.1,369.4z"/>
<path class="st21" d="M164.1,369.4c0,0,2.9,2.4,3,4.4c0,0.8,0.1,1.6,0.3,2.4c0.4,1.3,0.8,2.9,1.1,3.2c0.5,0.7,5.4,18.8,5.4,18.8
	c0.8,1.4,1.2,2.9,1.3,4.5c0.1,2.6,0.4,4.2,2.1,4h-3.8l-2.8-2l-1.6-3.6l-0.4-1.8c0,0,1.2-1.5-0.3-3.7c-1.4-2.2-6.2-11.4-6.2-11.4
	l-2.6-8.6l-2.1-3.6L164.1,369.4z"/>
<path class="st19" d="M173.1,405.2c0,0,1.4,0.7,2.6,0.3c0,0,3.6,1.6,3.3,1.8s-3.6,1.8-6.7,0.7c0,0-2-5.1-3.3-4.8
	c-1.2,0.2-0.7,4.1-0.7,4.1l-0.8,0.1v-5.8c0,0-0.3-3.2,1.6-2.8C169.2,398.7,171.5,405.4,173.1,405.2z"/>
<path class="st21" d="M173.1,405c0,0,1.4,0.7,2.6,0.3c0,0,3.6,1.6,3.3,1.8s-3.6,1.8-6.7,0.7c0,0-2-5.1-3.3-4.8
	c-1.2,0.2-0.7,4.1-0.7,4.1l-0.8,0.1v-5.8c0,0-0.3-3.2,1.6-2.8C169.2,398.4,171.5,405.1,173.1,405z"/>
<path class="st21" d="M164.1,402.3c0,0,1.7,1.8,5.2,0c0,0,4,2,1.8,2.7s-7.3,0-7.3,0l-2.8-5.4l-0.3,3.6h-1.1l-0.5-5.5
	c0,0,0.7-2.6,2-3C161.1,394.7,162,401.8,164.1,402.3z"/>
<path class="st21" d="M173.1,405.2c0,0,1.4,0.7,2.6,0.3c0,0,3.6,1.6,3.3,1.8s-3.6,1.8-6.7,0.7c0,0-2-5.1-3.3-4.8
	c-1.2,0.2-0.7,4.1-0.7,4.1l-0.8,0.1v-5.8c0,0-0.3-3.2,1.6-2.8C169.2,398.7,171.5,405.4,173.1,405.2z"/>
<path class="st13" d="M159.6,368.8c0,0,3.6-1.2,4,4.4c0.4,5.5,0.4,14.4,0.4,14.4s0.5,4.9,1.7,7.1s3.6,9.1,3.6,9.1s-4.8,1.6-6.2-1.3
	c-1-2-1.8-4-2.5-6.1c-0.1-0.4,1.5,0.1-0.1-4.1s-4.9-12-3.4-15.2c0,0-2-1.7-4.1-0.8C150.7,377.3,159.6,368.8,159.6,368.8z"/>
<path class="st19" d="M164.1,402.6c0,0,1.7,1.8,5.2,0c0,0,4,2,1.8,2.7s-7.3,0-7.3,0l-2.8-5.4l-0.3,3.6h-1.1l-0.5-5.6
	c0,0,0.7-2.6,2-3C161.1,395,162,402.1,164.1,402.6z"/>
<path class="st13" d="M149.4,333.5c0,0-2.5,5.8-1.5,8.6c1.1,2.8,4,7.1,4,7.1s-1.5,4.6-4.2,0.5s-5-11-5-11s0.7-0.8,0-3L149.4,333.5z"
	/>
<path class="st5" d="M152.9,348.6c0,0-1,4.6-7.6,0.8l-0.3-0.2c-6.9-4.1-8.2,6.2-8.2,6.2s2,4-0.8,9.2c-2.8,5.3-1.2,12-0.8,12.8
	s1.7-0.8,3.4,2.8s11.6,4,17.8-4.1s8.7-6,10.5-3.4c0,0-1.3-3.9-3.1-3.9s-10-3.6-12.7-7.1c-0.4-1.6-0.3-3.3,0.4-4.8
	C152.7,354.6,154.2,348.7,152.9,348.6z"/>
<path class="st15" d="M152.6,348.2c0,0-1,4.6-7.6,0.8l-0.3-0.2c-6.9-4.1-8.2,6.2-8.2,6.2s2,4-0.8,9.2c-2.8,5.3-1.2,12-0.8,12.8
	s1.7-0.8,3.4,2.8c1.7,3.6,11.6,4,17.8-4.1s8.7-6,10.5-3.4c0,0-1.3-3.9-3.1-3.9s-10-3.6-12.7-7.1c-0.4-1.6-0.3-3.3,0.4-4.8
	C152.5,354.3,153.9,348.3,152.6,348.2z"/>
<path class="st5" d="M143,338.6c0,0,0.6-0.9,2.3,3.5c1.3,3.3,2.4,6.7,3.2,10.2c0.4,1.8,0.8,10.2,0,11.4s-8.3-0.5-9.4-1.8
	c-1.1-1.3-1.1-11.2-1.1-11.2L143,338.6z"/>
<path class="st17" d="M142.9,338.3c0,0,0.6-0.9,2.3,3.5c1.3,3.3,2.4,6.7,3.2,10.2c0.4,1.8,0.8,10.2,0,11.4c-0.8,1.2-8.3-0.5-9.4-1.8
	c-1.1-1.3-1.1-11.2-1.1-11.2L142.9,338.3z"/>
<path class="st17" d="M147.8,340.3c1.2-0.6,2.8-0.2,3.4,1.1c0.1,0.2,0.1,0.3,0.2,0.5c0.7,2.5,1.8,6,2.4,7.6c1.1,2.8,0.7,9.4,0,10.3
	s-1.2,4.1-1.2,4.1s-1.2-0.8-1.1-6.5C151.7,351.8,145.2,341.7,147.8,340.3L147.8,340.3z"/>
<path class="st13" d="M143.4,360.9l8.6,4.1c0,0,7.9,3,3.8,4.2c-4.1,1.2-7.5-2.5-7.5-2.5l-7.7-2.9L143.4,360.9z"/>
<path class="st5" d="M136.6,341.7l-0.1,0.4c-1.3,4.6-1.5,9.5-0.6,14.3l0.7,3.9c0,0-0.1,0.9,1.3,2c1.1,0.9,2.1,1.9,2.9,3
	c0,0,1.7-2.8,3.8-3.8c0,0-2.1-1.5-2.9-2.4c-0.8-0.9-0.3-11-0.3-11S137.7,337.9,136.6,341.7z"/>
<path class="st17" d="M142.9,338.3c0,0-5.2-0.7-6.3,3.1l-0.1,0.4c-1.3,4.7-1.5,9.5-0.6,14.3l0.7,3.9c0,0-0.1,0.9,1.3,2
	c1.1,0.9,2.1,1.9,2.9,3c0,0,1.7-2.8,3.8-3.8c0,0-2.1-1.5-2.9-2.4c-0.8-0.9-0.3-11-0.3-11L142.9,338.3z"/>
<path class="st5" d="M149.4,333.8c-0.4,1-0.8,2-1.1,3.1c-1.4,1.4-3.5,1.9-5.4,1.2c0-0.7-0.1-1.4-0.3-2L149.4,333.8z"/>
<circle class="st13" cx="144.7" cy="332.9" r="5.2"/>
<path class="st5" d="M145.3,328.4c0.4,0.3,0.4,0.8,0.5,1.3c0.2,1.2,0.6,2.4,1.4,3.4c0.5,0.7,1.3,1.4,1.3,2.3c0,0.6-0.3,1.2-0.6,1.7
	c-1.3,2.7-0.8,5.8-0.2,8.7c0.2,0.9,0.4,2,1.1,2.6c0.4,0.3,0.9,0.5,1.1,1c0.3,0.5,0.1,1.1-0.2,1.7c-0.3,0.5-0.6,1-0.8,1.6
	c-0.2,1,0.4,1.9,1.3,2.2l-0.1,1.5c0,0.2,0,0.5,0.1,0.7c0.2,0.2,0.4,0.4,0.7,0.4c0.8,0,1.6-0.5,1.9-1.2c0.3-0.7,0.5-1.5,0.4-2.3
	c0-0.2,0-0.4,0.1-0.6s0.3-0.3,0.5-0.4c1.4-0.9,2.2-2.4,2.2-4.1c0-1-0.3-2-0.2-2.9c0.1-1,0.6-1.8,0.9-2.7c0.3-1,0.3-2.1,0-3.1
	c-0.3-0.9-0.8-1.8-1-2.7c-0.2-0.8-0.2-1.7-0.1-2.5l0.1-3.7c0.1-0.8,0-1.5-0.2-2.3c-0.4-1.3-1.4-2.2-2.4-3c-1.5-1.2-3.3-2-5.2-2.4
	s-3.9-0.1-5.7,0.8c-2.1,1.1-3.5,3.2-4.3,5.4c-0.8,2.2-1.2,4.7-2.4,6.8c-0.5,1-1.2,1.9-1.6,2.9s-0.7,2.2-0.3,3.2
	c0.5,1.2,1.7,2,2.3,3.1c0.5,0.8,0.6,1.8,1.1,2.7c0.4,0.9,1.3,1.7,2.2,1.6c0.3-0.1,0.7-0.2,1-0.4c1.3-1,1.6-2.7,1.5-4.3
	c-0.1-1.6-0.4-3.2-0.1-4.8c0.2-0.8,0.5-1.5,0.6-2.4c0.1-1.6-0.8-3-1.3-4.6c-0.4-1.3,0.1-3.6,1.1-4.8
	C142.7,327.9,144.5,327.8,145.3,328.4z"/>
<path class="st18" d="M145.2,328.3c0.4,0.3,0.4,0.8,0.5,1.3c0.2,1.2,0.6,2.4,1.4,3.4c0.5,0.7,1.3,1.4,1.3,2.3c0,0.6-0.3,1.2-0.6,1.7
	c-1.3,2.7-0.8,5.8-0.2,8.7c0.2,0.9,0.4,2,1.1,2.6c0.4,0.3,0.9,0.5,1.1,1c0.3,0.5,0.1,1.1-0.2,1.7c-0.3,0.5-0.6,1-0.8,1.6
	c-0.2,1,0.4,1.9,1.3,2.2l-0.1,1.5c0,0.2,0,0.5,0.1,0.7c0.2,0.2,0.4,0.4,0.7,0.4c0.8,0,1.6-0.5,1.9-1.2c0.3-0.7,0.5-1.5,0.4-2.3
	c0-0.2,0-0.4,0.1-0.6s0.3-0.3,0.5-0.4c1.4-0.9,2.2-2.5,2.2-4.1c0-1-0.3-2-0.2-2.9c0.1-1,0.6-1.8,0.9-2.7c0.3-1,0.3-2.1,0-3.1
	c-0.3-0.9-0.8-1.8-1-2.7c-0.2-0.8-0.2-1.7-0.1-2.5l0.1-3.7c0.1-0.8,0-1.5-0.2-2.3c-0.4-1.3-1.4-2.2-2.4-3c-1.5-1.2-3.3-2-5.2-2.4
	s-3.9-0.1-5.7,0.8c-2.1,1.1-3.5,3.2-4.3,5.4c-0.8,2.2-1.2,4.7-2.4,6.8c-0.5,1-1.2,1.9-1.6,2.9c-0.4,1-0.7,2.2-0.3,3.2
	c0.5,1.2,1.7,2,2.3,3.1c0.5,0.8,0.6,1.8,1.1,2.7c0.4,0.9,1.3,1.7,2.2,1.6c0.3-0.1,0.7-0.2,1-0.4c1.3-1,1.6-2.7,1.5-4.3
	c-0.1-1.6-0.4-3.2-0.1-4.8c0.2-0.8,0.5-1.5,0.6-2.4c0.1-1.6-0.8-3-1.3-4.6c-0.4-1.3,0.1-3.6,1.1-4.8
	C142.5,327.8,144.4,327.7,145.2,328.3z"/>
<path class="st5" d="M142.2,347.1c0,0-1.5,6.7,0.5,10.4"/>
<path class="st10" d="M55.4,380.1c0,0-6.7-1.3-8.5-3.1c-1.8-1.8-9.8-4.9-10.7-2.7c-0.9,2.2-12.1,9.8-4.5,11.1s17.9,1.8,20.1,0.9
	C54.1,385.5,55.4,380.1,55.4,380.1z"/>
<path class="st11" d="M31.7,384.6c7.6,1.3,17.9,1.8,20.1,0.9c1.7-0.7,2.9-3.9,3.4-5.4h0.2c0,0-1.3,5.3-3.6,6.2
	c-2.2,0.9-12.5,0.4-20.1-0.9c-2.2-0.4-2.8-1.3-2.6-2.4C29.3,383.8,30.1,384.4,31.7,384.6z"/>
<path class="st2" d="M82.3,219.9c22.1,0,40,16.9,40,39s-17.9,41-40,41s-40-17.9-40-40S60.2,219.9,82.3,219.9z"/>
<path class="st2" d="M124.9,208c22.1,0,40,17.9,40,40s-17.9,40-40,40s-40-16.9-40-39S102.8,208,124.9,208z"/>
<path class="st2" d="M171.8,208.4c22.1,0,40,18.9,40,41s-17.9,39-40,39s-40-17.9-40-40S149.7,208.4,171.8,208.4z"/>
<path class="st2" d="M187,218.9c22.1,0,40,18.9,40,41s-17.9,39-40,39s-40-17.9-40-40S164.9,218.9,187,218.9z"/>
<path class="st2" d="M212.8,223.4c22.1,0,40,17.9,40,40s-17.9,40-40,40s-40-18.9-40-41S190.7,223.4,212.8,223.4z"/>
<path class="st2" d="M223.4,191.8c22.1,0,40,17.9,40,40s-17.9,40-40,40s-40-18.9-40-41S201.3,191.8,223.4,191.8z"/>
<path class="st2" d="M211.6,155.1c22.1,0,40,17.9,40,40s-17.9,40-40,40s-40-18.9-40-41S189.5,155.1,211.6,155.1z"/>
<path class="st2" d="M189.4,155.1c22.1,0,40,17.9,40,40s-17.9,40-40,40s-40-18.9-40-41S167.3,155.1,189.4,155.1z"/>
<path class="st2" d="M176.5,138.6c22.1,0,40,17.9,40,40s-17.9,39-40,39s-40-16.9-40-39S154.4,138.6,176.5,138.6z"/>
<path class="st2" d="M143.7,156.6c22.1,0,40,16.9,40,39s-17.9,40-40,40s-40-16.9-40-39C103.6,171.9,121.5,156.6,143.7,156.6z"/>
<circle class="st2" cx="67.1" cy="231.8" r="40"/>
<path class="st2" d="M90.1,171.9c22.1,0,40,16.9,40,39s-17.9,41-40,41s-40-17.9-40-40S68,171.9,90.1,171.9z"/>
<path class="st2" d="M105,151.9c22.1,0,40,16.9,40,39s-17.9,41-40,41s-40-17.9-40-40S82.9,151.9,105,151.9z"/>
<path class="st2" d="M133.1,121.8c22.1,0,40,17.9,40,40s-17.9,39-40,39s-40-16.9-40-39S111,121.8,133.1,121.8z"/>
<path class="st2" d="M80.8,155.1c22.1,0,40,16.9,40,39s-17.9,41-40,41s-40-17.9-40-40S58.6,155.1,80.8,155.1z"/>
<path class="st5" d="M42.5,201.4c0,0,37.3-17.7,59.9,13.7"/>
<path class="st5" d="M140.4,165.5c0.6,0,40.7-3.9,49.4,36.5"/>
<path class="st5" d="M191.7,247.5c0,0,37.3-17.7,59.9,13.6"/>
<title>a_moment_to_relax</title>
<path class="st2" d="M207.8,700c0,0,6-25.4,48.4-16.9c42.3,8.5,48.4,16.9,48.4,16.9H207.8z"/>
<path class="st2" d="M352.9,700c0,0-33.9-20.6-48.4,0H352.9z"/>
<path class="st2" d="M598.9,755c0,0,222.5-32.6,360.3,0"/>
<circle class="st22" cx="942.8" cy="570.3" r="6"/>
<polygon class="st0" points="805.2,777.5 697.6,777.5 666.5,483.9 666.1,479.6 666.1,479.6 663.4,454.7 771.1,453.9 774.4,453.9 
	774.6,456.3 "/>
<polygon class="st0" points="668.2,482.1 666.5,483.9 377.4,777.5 230,777.5 596.3,397.7 666.1,479.6 "/>
<path class="st23" d="M1020,724.3c-28,35.7-67.1,55.9-108.1,55.9H150c-49,0-96-22.7-131.2-63.4l1.1-0.2
	c111.2-21.2,285.7-34.9,481.9-34.9c217.2,0,407.9,16.8,515.4,42C1018.2,723.8,1019.1,724.1,1020,724.3z"/>
<path class="st24" d="M1020,724.9c-28,35.7-67.1,55.9-108.1,55.9H150c-49,0-96-22.7-131.2-63.4l1.1-0.2
	c111.2-21.3,285.7-34.9,481.9-34.9c217.2,0,407.9,16.8,515.4,42C1018.2,724.4,1019.1,724.7,1020,724.9z"/>
<circle class="st22" cx="653.5" cy="381.9" r="192.2"/>
<path class="st25" d="M839.1,717.9l-9.8,36.2c-3.8,14-16.5,23.7-30.9,23.7H188.9c-14.5,0-27.1-9.7-30.9-23.7l-9.8-36.2
	c-8.6-31.5,13.8-63.7,46.5-65.2c0.8,0,1.6-0.1,2.4-0.1h593.2c0.8,0,1.6,0,2.4,0.1C825.3,654.2,847.6,686.4,839.1,717.9z"/>
<path class="st5" d="M780,669.1c0,39.1-132.7,70.8-296.3,70.8s-296.3-31.7-296.3-70.8c0-5.7,2.8-11.2,8.1-16.5H772
	C777.2,658,780,663.5,780,669.1z"/>
<path class="st2" d="M860.7,508c0-28.9-26.5-52.3-59.2-52.3s-59.2,23.4-59.2,52.3c-32.7,0-59.2,23.4-59.2,52.3s26.5,52.3,59.2,52.3
	c10.3,0,20.4-2.4,29.6-7c18.6,9.3,40.6,9.3,59.2,0c9.2,4.6,19.3,7,29.6,7c32.7,0,59.2-23.4,59.2-52.3S893.5,508,860.7,508z"/>
<path class="st5" d="M860.7,508c0-28.9-26.5-52.3-59.2-52.3s-59.2,23.4-59.2,52.3c-32.7,0-59.2,23.4-59.2,52.3s26.5,52.3,59.2,52.3
	c10.3,0,20.4-2.4,29.6-7c18.6,9.3,40.6,9.3,59.2,0c9.2,4.6,19.3,7,29.6,7c32.7,0,59.2-23.4,59.2-52.3S893.5,508,860.7,508z"/>
<path class="st2" d="M720.7,243.4c0-7.3-1.3-14.4-3.9-21.2c30.9-11,47.1-44.9,36.1-75.8c-8.4-23.7-30.8-39.5-56-39.5
	c0-32.8-26.6-59.4-59.4-59.4c-27.5,0-51.3,18.8-57.7,45.6c-0.5,0-1.1,0-1.6,0c0-32.8-26.5-59.4-59.3-59.4
	c-28.6,0-53.1,20.3-58.4,48.4c-25.8-20.3-63.1-15.8-83.4,10c-8.2,10.5-12.7,23.4-12.7,36.7c-32.8,0-59.3,26.7-59.3,59.4
	c0,20,10.1,38.6,26.8,49.5c-0.8,3.8-1.1,7.7-1.1,11.7c-32.8,0-59.4,26.6-59.4,59.3s26.6,59.4,59.3,59.4c10.4,0,20.7-2.7,29.7-8
	c18.4,10.6,41,10.6,59.4,0c22.6,13,51,9.8,70.1-8c1,0,2.1,0.1,3.1,0.1c10.4,0,20.7-2.7,29.7-8c13.3,7.7,29,9.9,43.9,6.2
	c19,14,44.5,15.5,65,3.6c18.4,10.6,41,10.6,59.4,0c28.4,16.4,64.7,6.7,81.1-21.7c16.4-28.4,6.7-64.7-21.7-81.1
	C741.4,246.1,731.1,243.3,720.7,243.4L720.7,243.4z M449.5,249.3c0-2.6-0.2-5.1-0.5-7.6c1.5-0.7,3-1.5,4.5-2.3
	c2.4,1.4,4.8,2.6,7.4,3.6c-2.9,1.9-5.7,4-8.2,6.4C451.6,249.4,450.6,249.3,449.5,249.3z"/>
<path class="st2" d="M693.6,407c-0.4-29.5-24.8-53.1-54.3-52.7c-28.9,0.4-52.3,23.8-52.7,52.7c-29.5,0-53.5,23.9-53.5,53.5
	c0,29.5,23.9,53.5,53.5,53.5c9.4,0,18.7-2.5,26.8-7.2c16.5,9.6,37,9.6,53.5,0c25.6,14.8,58.3,6,73.1-19.6s6-58.3-19.6-73.1
	C712.2,409.5,703,407,693.6,407z"/>
<path class="st5" d="M693.6,407c-0.4-29.5-24.8-53.1-54.3-52.7c-28.9,0.4-52.3,23.8-52.7,52.7c-29.5,0-53.5,23.9-53.5,53.5
	c0,29.5,23.9,53.5,53.5,53.5c9.4,0,18.7-2.5,26.8-7.2c16.5,9.6,37,9.6,53.5,0c25.6,14.8,58.3,6,73.1-19.6s6-58.3-19.6-73.1
	C712.2,409.5,703,407,693.6,407z"/>
<path class="st5" d="M720.7,243.4c0-7.3-1.3-14.4-3.9-21.2c30.9-11,47.1-44.9,36.1-75.8c-8.4-23.7-30.8-39.5-56-39.5
	c0-32.8-26.6-59.4-59.4-59.4c-27.5,0-51.3,18.8-57.7,45.6c-0.5,0-1.1,0-1.6,0c0-32.8-26.5-59.4-59.3-59.4
	c-28.6,0-53.1,20.3-58.4,48.4c-25.8-20.3-63.1-15.8-83.4,10c-8.2,10.5-12.7,23.4-12.7,36.7c-32.8,0-59.3,26.7-59.3,59.4
	c0,20,10.1,38.6,26.8,49.5c-0.8,3.8-1.1,7.7-1.1,11.7c-32.8,0-59.4,26.6-59.4,59.3s26.6,59.4,59.3,59.4c10.4,0,20.7-2.7,29.7-8
	c18.4,10.6,41,10.6,59.4,0c22.6,13,51,9.8,70.1-8c1,0,2.1,0.1,3.1,0.1c10.4,0,20.7-2.7,29.7-8c13.3,7.7,29,9.9,43.9,6.2
	c19,14,44.5,15.5,65,3.6c18.4,10.6,41,10.6,59.4,0c28.4,16.4,64.7,6.7,81.1-21.7c16.4-28.4,6.7-64.7-21.7-81.1
	C741.4,246.1,731.1,243.3,720.7,243.4L720.7,243.4z M449.5,249.3c0-2.6-0.2-5.1-0.5-7.6c1.5-0.7,3-1.5,4.5-2.3
	c2.4,1.4,4.8,2.6,7.4,3.6c-2.9,1.9-5.7,4-8.2,6.4C451.6,249.4,450.6,249.3,449.5,249.3z"/>
<path class="st25" d="M675.6,535.3c-4.6-1.8-9.3-3.7-14.2-4.3c-0.5,0-1-0.1-1.5-0.1c0-0.5,0-1,0.1-1.5c0.3-6,2.1-12.3,6.4-16.6
	c4.2-4.4,10.1-6.5,12.9-11.7c-10.1-3-20.5-4.5-31-4.7c-2.7,0-5.5,0-7.7,1.5c-2.7,1.8-3.9,5.1-4.8,8.3c-2.8,10.5-4.7,20.8-7.8,31
	l-0.8,0.2c-11.2,2.4-25.4,0.5-30.6-9.6c1.3-5.1,2.9-10.1,4.8-15c6-15.1,15.3-28.6,24.5-42c5.9-8.7,11.9-17.4,17.8-26.1
	c-8.9-2.7-17.9-4.9-27.1-6.6c-1.9-0.4-4.1-0.7-5.7,0.5c-1.1,0.9-1.9,2.2-2.3,3.5c-8.7,21.4-19.4,44.9-22.5,68.4
	c-1.7-0.9-3.4-1.8-5.2-2.5l-28.1-12c-1.5-0.5-2.8-1.4-3.9-2.5c-2.6-3.2,0-8.2,3.7-9.9c3.7-1.7,8-1.2,12.1-1.6s8.6-1.8,10.1-5.6
	c1.8-4.4-1.6-9.3-5.7-11.6c-4.1-2.3-9-2.9-13.3-4.8c-6.7-3.2-11.6-9.3-13.1-16.6l-6.7-0.3c8.9-8.5,18-16.6,28.6-22.8
	c5.1-3,10.5-5.6,15.2-9.1c12.7-9.7,19.3-25.5,17.4-41.3c-0.6-4.5-1.9-9.2-0.5-13.6c1.2-3.5,3.9-6.3,6.6-8.8l24.3-23.2
	c-15.5-3.5-31.3-5.1-47.2-4.6c-4,0.1-8.2,0.4-11.8,2.2c-6.6,3.3-9.7,10.8-12.2,17.7c-2,4.8-3.5,9.8-4.7,14.9
	c-1.8,8.6-1.5,18-6.4,25.3c-3.8,5.8-10.2,9.2-16,13.1c-16.4,11.1-28.6,27.4-34.7,46.2c-0.4,1.2-1,2.8-1.8,4.5
	c-14.2,1.2-28.2,3.9-41.3,9.5c-16.6,7-31,18-45.2,29c-15.6,12.1-32.1,25.6-37.5,44.6c-6.1,21.1,3.3,44.2,18.4,60.2
	c12.3,13,28,22.2,43.8,30.5c10.3,5.4,12,4.3,21.1-3l24.4-19.5c7-5.6,14-11.3,18.8-18.8c6.5-10.4,8.1-23.6,16-33
	c10.8-12.9,32.8-14,44.9-2.2c3.5,3.4,6.5,7.8,11.2,8.9c2.3,0.6,4.8,0.2,6.9,1.2c4,1.9,4.6,7.3,6,11.4c3.9,11.2,17.3,17.1,29,15.4
	c11.7-1.7,21.9-9.3,29.8-18.1c2.2-2.4,4.3-5,7.3-6.4c2.4-1,4.9-1.6,7.5-1.6c8.6-0.4,17.1,1.5,24.7,5.5c7.1,3.6,13.3,9,20.8,11.8
	c14.8,5.6,31.3,0.3,45.7-6L675.6,535.3z"/>
<path class="st5" d="M675.6,535.3c-4.6-1.8-9.3-3.7-14.2-4.3c-0.5,0-1-0.1-1.5-0.1c0-0.5,0-1,0.1-1.5c0.3-6,2.1-12.3,6.4-16.6
	c4.2-4.4,10.1-6.5,12.9-11.7c-10.1-3-20.5-4.5-31-4.7c-2.7,0-5.5,0-7.7,1.5c-2.7,1.8-3.9,5.1-4.8,8.3c-2.8,10.5-4.7,20.8-7.8,31
	l-0.8,0.2c-11.2,2.4-25.4,0.5-30.6-9.6c1.3-5.1,2.9-10.1,4.8-15c6-15.1,15.3-28.6,24.5-42c5.9-8.7,11.9-17.4,17.8-26.1
	c-8.9-2.7-17.9-4.9-27.1-6.6c-1.9-0.4-4.1-0.7-5.7,0.5c-1.1,0.9-1.9,2.2-2.3,3.5c-8.7,21.4-19.4,44.9-22.5,68.4
	c-1.7-0.9-3.4-1.8-5.2-2.5l-28.1-12c-1.5-0.5-2.8-1.4-3.9-2.5c-2.6-3.2,0-8.2,3.7-9.9c3.7-1.7,8-1.2,12.1-1.6s8.6-1.8,10.1-5.6
	c1.8-4.4-1.6-9.3-5.7-11.6c-4.1-2.3-9-2.9-13.3-4.8c-6.7-3.2-11.6-9.3-13.1-16.6l-6.7-0.3c8.9-8.5,18-16.6,28.6-22.8
	c5.1-3,10.5-5.6,15.2-9.1c12.7-9.7,19.3-25.5,17.4-41.3c-0.6-4.5-1.9-9.2-0.5-13.6c1.2-3.5,3.9-6.3,6.6-8.8l24.3-23.2
	c-15.5-3.5-31.3-5.1-47.2-4.6c-4,0.1-8.2,0.4-11.8,2.2c-6.6,3.3-9.7,10.8-12.2,17.7c-2,4.8-3.5,9.8-4.7,14.9
	c-1.8,8.6-1.5,18-6.4,25.3c-3.8,5.8-10.2,9.2-16,13.1c-16.4,11.1-28.6,27.4-34.7,46.2c-0.4,1.2-1,2.8-1.8,4.5
	c-14.2,1.2-28.2,3.9-41.3,9.5c-16.6,7-31,18-45.2,29c-15.6,12.1-32.1,25.6-37.5,44.6c-6.1,21.1,3.3,44.2,18.4,60.2
	c12.3,13,28,22.2,43.8,30.5c10.3,5.4,12,4.3,21.1-3l24.4-19.5c7-5.6,14-11.3,18.8-18.8c6.5-10.4,8.1-23.6,16-33
	c10.8-12.9,32.8-14,44.9-2.2c3.5,3.4,6.5,7.8,11.2,8.9c2.3,0.6,4.8,0.2,6.9,1.2c4,1.9,4.6,7.3,6,11.4c3.9,11.2,17.3,17.1,29,15.4
	c11.7-1.7,21.9-9.3,29.8-18.1c2.2-2.4,4.3-5,7.3-6.4c2.4-1,4.9-1.6,7.5-1.6c8.6-0.4,17.1,1.5,24.7,5.5c7.1,3.6,13.3,9,20.8,11.8
	c14.8,5.6,31.3,0.3,45.7-6L675.6,535.3z"/>
<path class="st2" d="M478,387.1c0-29.7-31.3-53.8-70-53.8s-70,24.1-70,53.8c-38.7,0-70,24.1-70,53.8c0,29.7,31.3,53.8,70,53.8
	c12,0.1,24-2.4,35-7.3c22.3,9.6,47.6,9.6,70,0c11,4.8,22.9,7.3,35,7.3c38.7,0,70-24.1,70-53.8S516.6,387.1,478,387.1z"/>
<path class="st5" d="M478,387.1c0-29.7-31.3-53.8-70-53.8s-70,24.1-70,53.8c-38.7,0-70,24.1-70,53.8c0,29.7,31.3,53.8,70,53.8
	c12,0.1,24-2.4,35-7.3c22.3,9.6,47.6,9.6,70,0c11,4.8,22.9,7.3,35,7.3c38.7,0,70-24.1,70-53.8S516.6,387.1,478,387.1z"/>
<path class="st25" d="M628,691l-40.1-18.5c-3.2-1.5-6.8-3.3-7.8-6.7c-0.4-1.8-0.4-3.7,0-5.6c1-9.6-1.1-19.2-6-27.6
	c-3-5.2-7.1-9.8-8.9-15.5c-3.8-12.1,3.6-24.9,4-37.6c0.4-12.4-6-24.3-15.2-32.7c-2.7-2.5-5.7-4.8-7.8-7.8c-6.2-8.7-3.6-20.6-0.7-31
	l0.8-0.7c0.6-0.6,0.1-2.9-0.9-6.5c11.6-3.1,22.5-8.3,32.2-15.3c3.1-2.2,6-4.7,9.7-6.1c5-2,10.6-1.8,15.7-3.6
	c9.4-3.5,14.6-13.3,19-22.3c10.3-21.3,20.9-43.2,22.2-66.9c-8.5-6.6-18.8-10.3-29.5-10.8c-1.8-0.1-3.8,0-5,1.4
	c-0.7,0.9-1.1,1.9-1.2,3c-3.7,16.9-10,33-18.7,47.9c-3.5,6.2-7.8,12-12.8,17.2c-6,6-13.5,10.6-20.8,15c-6.1,3.8-14.4,7.4-21.3,11.7
	c-4.8-12.4-9.2-23.8-8.7-25.5c6.1-19,6.3-39.3,0.7-58.4c-1.4-4.7-3.2-9.4-3.6-14.4c-0.4-4.9,0.5-9.8,0.9-14.7
	c0.8-9.7-0.7-19.5-0.7-29.3c0.1-13.2,3-26.3,5.9-39.2c-8-1.4-16.2-1.9-24.4-1.3c-1.6,0-3.2,0.4-4.6,1.2c-2,1.3-2.8,3.9-3.5,6.2
	c-5.4,18-15.1,34.5-20.9,52.4s-7,38.9,3.7,54.3c3.8,5.5,9.2,10.4,10,17.1c0.4,3.5-0.5,7-1.4,10.4c-1.6,6.1,24.6,72,26.1,78.1
	c0,0.2,0.1,0.3,0.1,0.5c-0.8,0.2-1.7,0.3-2.5,0.5c-1.1,17.1-7.7,33.4-18.9,46.5c-1.5-4.2-2.5-8.6-3.1-13c-0.9-6.6-0.8-13.5-2.9-19.9
	c-3.1-9.5-10.6-16.8-17.1-24.4c-11.8-13.7-21-29.3-27.4-46.2c-4.9,1.8-10,3.3-15.1,4.4c-2.7,0.6-12.1,0.6-13.6,3
	c-2.3,3.6,7.9,20.5,9.9,24.4c7.1,13.7,19,24.3,26,38c2.9,6.1,5.3,12.4,7.2,18.8c3.8,12.1,7.6,24.2,10.6,36.5
	c-3.5,3.6-6.3,8.1-9.3,12.2c-10.7,14.5-24.8,26.2-41.1,33.9c-1.9,0.9-4.1,1.9-4.9,3.9c-0.1,0.3-0.2,0.7-0.3,1.1
	c-6.6-4.7-12.9-9.9-17.2-16.7c-1.9-3-3.4-6.3-5.5-9.2c-7-9.8-19.2-13.9-29.3-20.6c-4.2-2.8-8.2-6.1-12.9-8.1
	c-5.1-2.2-10.8-2.6-16.4-3c-4.6-0.3-22-4-24.3,0.1c-3.2,5.8,6.9,14.2,11,16.2c6.7,3.4,14.4,4.2,21.5,6.9c6.4,2.6,12.3,6.2,17.5,10.7
	c2.3,1.7,4.3,3.7,5.9,6c1.7,2.7,2.6,5.9,4,8.8c4.7,9.2,14.8,13.4,23.9,18.9c-2.4,0.1-4.8,0.6-7,1.6c-6.8,3.1-9.9,10.7-14.3,16.7
	c-3.9,5.3-9.1,9.6-13.4,14.5c-4.3,5-7.9,11.2-7.6,17.7c0.2,4.2,1.9,8.7-0.3,12.3c5.1,2.2,11.4,4.8,16.9,5.5s11.5-0.4,15.6-4.1
	c1.3-1.4,2.6-2.6,4.1-3.8c3.5-2.3,8.3-1.7,12,0.2s6.8,4.9,10.2,7.4c9.9,7,22.3,9.4,34.1,6.6c2.4-0.6,5.9-1.1,5.1-3.4
	c-10.4-4.9-17.3-15.2-17.6-26.7c7.8-1.5,15.7,1.4,20.7,7.6c-3.4,0.1-5.6,4.7-3.6,7.4c13-0.3,25.1-6.8,32.4-17.6
	c8.7-3.5,18.5,0.6,22.1,9.2c0.9,2.3,1.4,4.8,1.2,7.3l17.5,8.6c2.7,1.4,5.7,2.7,8.7,2.5c3.1-0.2,6.2-2.7,5.9-5.7
	c-0.3-3.5-4.5-7.1-2.2-9.7c4.1,1.8,7.3,5.5,11.5,7c4.2,1.6,10.4-0.5,10.2-5c-0.2-1.5-0.8-2.9-1.7-4.1c-4.7-7.2-11-13.3-18.4-17.7
	c-0.5-4,8.5-8.3,11.2-5.3l22.1,24.4c1.7,2.1,3.8,3.9,6,5.4c7.9,4.6,17.8,0,26.9,0c9.9,0,20,5.6,29.2,2c2.4-0.9,4.8-3.2,4.1-5.7
	C631.4,692.8,629.6,691.8,628,691z"/>
<path class="st2" d="M687.9,236.2c0-6-1.1-12-3.3-17.6c25.7-9.1,39.2-37.4,30-63.1c-7-19.7-25.6-32.9-46.5-32.9
	c0-27.3-22.2-49.4-49.4-49.3c-22.8,0-42.6,15.7-48,37.9c-0.4,0-0.9,0-1.4,0c0.1-27.3-21.9-49.5-49.2-49.6
	c-23.9-0.1-44.4,16.9-48.8,40.4c-21.4-16.8-52.5-13.1-69.3,8.3c-6.8,8.7-10.6,19.4-10.6,30.5c-27.3,0-49.4,22.1-49.3,49.4
	c0,16.6,8.4,32.2,22.3,41.3c-0.6,3.2-0.9,6.4-1,9.7c-27.3,0-49.4,22.1-49.4,49.3s22.1,49.4,49.3,49.4c8.7,0,17.2-2.3,24.8-6.6
	c15.3,8.8,34.1,8.8,49.4,0c18.8,10.9,42.4,8.2,58.3-6.6c0.9,0,1.7,0.1,2.6,0.1c8.7,0,17.2-2.3,24.7-6.6c11.1,6.4,24.2,8.3,36.6,5.2
	c15.8,11.7,37,12.9,54,3c15.3,8.8,34.1,8.8,49.4,0c23.6,13.6,53.8,5.5,67.4-18.1c13.6-23.6,5.5-53.8-18.1-67.4
	C705.1,238.5,696.6,236.2,687.9,236.2L687.9,236.2z M462.3,241.2c0-2.1-0.1-4.2-0.4-6.3c1.2-0.6,2.5-1.2,3.7-1.9c2,1.1,4,2.1,6.2,3
	c-2.4,1.6-4.7,3.4-6.9,5.3C464.1,241.2,463.2,241.2,462.3,241.2z"/>
<path class="st2" d="M855.7,509.5c0-27.3-25.1-49.4-56-49.4s-56,22.1-56,49.4c-30.9,0-56,22.1-56,49.4s25.1,49.4,56,49.4
	c9.7,0,19.3-2.3,28-6.7c17.6,8.8,38.4,8.8,56,0c8.7,4.4,18.3,6.7,28,6.6c30.9,0,56-22.1,56-49.4S886.7,509.5,855.7,509.5z"/>
<path class="st2" d="M687.9,409.1c0.4-27.3-21.3-49.7-48.6-50.2c-27.3-0.4-49.7,21.3-50.2,48.6c0,0.5,0,1,0,1.5
	c-27.3,0-49.4,22.1-49.4,49.4s22.1,49.4,49.4,49.4c8.6,0,17.1-2.3,24.6-6.6c15.3,8.8,34.1,8.8,49.4,0c23.6,13.6,53.8,5.5,67.4-18.1
	c13.6-23.6,5.5-53.8-18.1-67.4C705,411.4,696.5,409.1,687.9,409.1L687.9,409.1z"/>
<path class="st2" d="M472.2,389.3c0-27.3-28.8-49.4-64.2-49.4s-64.2,22.1-64.2,49.4c-35.4,0-64.2,22.1-64.2,49.4
	s28.7,49.4,64.2,49.4c11,0.1,22-2.2,32.1-6.6c20.5,8.8,43.7,8.8,64.2,0c10.1,4.4,21.1,6.7,32.1,6.6c35.4,0,64.2-22.1,64.2-49.4
	S507.7,389.3,472.2,389.3z"/>
<path class="st2" d="M352.1,534.2c0.4-29.1-22.8-53-51.9-53.5c-29.1-0.4-53,22.8-53.5,51.9c0,0.5,0,1.1,0,1.6
	c-29.1,0-52.7,23.6-52.7,52.6c0,29.1,23.6,52.7,52.6,52.7c9.3,0,18.4-2.4,26.4-7.1c16.3,9.4,36.4,9.4,52.7,0
	c25.2,14.5,57.4,5.9,71.9-19.3s5.9-57.4-19.3-71.9C370.4,536.6,361.3,534.2,352.1,534.2z"/>
<path class="st5" d="M352.1,534.2c0.4-29.1-22.8-53-51.9-53.5c-29.1-0.4-53,22.8-53.5,51.9c0,0.5,0,1.1,0,1.6
	c-29.1,0-52.7,23.6-52.7,52.6c0,29.1,23.6,52.7,52.6,52.7c9.3,0,18.4-2.4,26.4-7.1c16.3,9.4,36.4,9.4,52.7,0
	c25.2,14.5,57.4,5.9,71.9-19.3s5.9-57.4-19.3-71.9C370.4,536.6,361.3,534.2,352.1,534.2z"/>
<path class="st2" d="M348.8,535.8c0.4-27.3-21.3-49.7-48.6-50.2c-27.3-0.4-49.7,21.3-50.2,48.6c0,0.5,0,1,0,1.5
	c-27.3,0-49.4,22.1-49.4,49.4c0,27.3,22.1,49.4,49.4,49.4c8.7,0,17.2-2.3,24.7-6.6c15.3,8.8,34.1,8.8,49.4,0
	c23.6,13.6,53.8,5.5,67.4-18.1s5.5-53.8-18.1-67.4C365.9,538.1,357.4,535.8,348.8,535.8L348.8,535.8z"/>
<path class="st5" d="M503.5,134.2c23.8,0,44,17.5,47.3,41.1c3.8-26.1-14.3-50.3-40.4-54.1c-26.1-3.8-50.3,14.3-54.1,40.4
	c-0.3,2.4-0.5,4.8-0.5,7.2c0,2.2,0.2,4.4,0.5,6.6C459.5,151.7,479.7,134.2,503.5,134.2z"/>
<path class="st5" d="M601.5,219.4c21.6,9.9,32.7,34.3,25.8,57.1c14.2-22.2,7.7-51.7-14.5-65.9s-51.7-7.7-65.9,14.5
	c-1.2,1.8-2.2,3.8-3.1,5.8c-0.9,2-1.7,4.1-2.3,6.2C554.2,217,579.9,209.5,601.5,219.4z"/>
<path class="st5" d="M461.6,255.6c21.6,9.9,32.7,34.3,25.8,57.1c1.2-1.9,2.2-3.8,3.2-5.8c10.9-24,0.2-52.3-23.8-63.2
	c-23.9-10.8-52-0.4-63,23.4c-0.9,2-1.7,4.1-2.3,6.2C414.3,253.2,440,245.7,461.6,255.6z"/>
<path class="st5" d="M411.9,408.5c10.7,9.4,12.9,25.3,5,37.2c1-0.9,1.9-1.8,2.8-2.8c10.4-11.9,9.2-29.9-2.6-40.4
	c-11.9-10.4-29.9-9.2-40.4,2.6l0,0c-0.9,1-1.7,2-2.4,3.2C385.1,399.1,401.2,399.1,411.9,408.5z"/>
<path class="st5" d="M861.3,540.2c10.7,9.4,12.9,25.3,5,37.2c1-0.9,1.9-1.8,2.8-2.8c10.4-11.9,9.2-29.9-2.6-40.3s-29.9-9.2-40.3,2.6
	c-0.9,1-1.7,2-2.4,3.1C834.5,530.7,850.5,530.8,861.3,540.2z"/>
<path class="st5" d="M301,539.8c11.4-8.6,27.4-7.4,37.5,2.8c-0.6-1.2-1.3-2.3-2.1-3.3c-9.7-12.5-27.7-14.7-40.1-5
	c-12.1,9.4-14.6,26.8-5.6,39.3c0.8,1.1,1.7,2,2.6,3C286.2,564,289.5,548.4,301,539.8z"/>
<path class="st5" d="M633.5,432.8c11.4-8.6,27.4-7.4,37.5,2.8c-0.6-1.2-1.3-2.3-2.1-3.3c-9.2-12.8-27.1-15.7-39.9-6.5
	c-12.8,9.2-15.7,27.1-6.5,39.9c0.2,0.3,0.4,0.6,0.6,0.8c0.8,1.1,1.7,2.1,2.6,3C618.7,457,622.1,441.4,633.5,432.8z"/>
<path class="st2" d="M581.6,646.8c-3.2-2.4-2.8-8.3-2.8-8.3s5.5-1.8,8.7,0.6c3.2,2.5,4.4,6.2,2.8,8.3S584.8,649.2,581.6,646.8z"/>
<path class="st2" d="M592.5,710.9c-3.2-2.4-2.8-8.3-2.8-8.3s5.5-1.8,8.7,0.6c3.2,2.5,4.4,6.2,2.8,8.3
	C599.5,713.6,595.6,713.3,592.5,710.9z"/>
<path class="st2" d="M581.6,716.9c-3.2-2.4-2.8-8.3-2.8-8.3s5.5-1.8,8.7,0.6c3.2,2.5,4.4,6.2,2.8,8.3S584.8,719.4,581.6,716.9z"/>
<path class="st2" d="M656.6,669.8c-3.2-2.4-2.8-8.3-2.8-8.3s5.5-1.8,8.7,0.6c3.2,2.5,4.4,6.2,2.8,8.3S659.7,672.2,656.6,669.8z"/>
<path class="st2" d="M345,482.8c2.5-3.1,8.3-2.7,8.3-2.7s1.8,5.5-0.7,8.7s-6.2,4.3-8.3,2.7C342.2,489.8,342.5,485.9,345,482.8z"/>
<circle class="st0" cx="381.4" cy="219.8" r="30.2"/>
<path class="st24" d="M842.7,722.3c0.9-2.3,2.8-3.9,5.1-4.5c1.2-0.3,2.5-0.4,3.8-0.4c7.7,0.1,13.5,3.6,20.4,5.2
	c6.7,1.6,14.3,1.5,21.6,1.4c4.6,0.1,9.2-0.3,13.7-1.1c7.3-1.5,12.1-5.2,16.5-8.7"/>
<path class="st24" d="M910.4,748.9c0.9-2.3,2.8-3.9,5.1-4.5c1.2-0.3,2.5-0.4,3.8-0.4c7.7,0.1,13.5,3.6,20.4,5.2
	c6.7,1.6,14.3,1.5,21.6,1.4c4.6,0.1,9.2-0.3,13.7-1.1c7.3-1.5,12.1-5.2,16.5-8.7"/>
<path class="st24" d="M853.6,742.9c0.4-0.7,1.1-1.1,1.9-1.2c0.5-0.1,0.9-0.1,1.4-0.1c2.8,0,4.9,1,7.5,1.5c2.6,0.4,5.2,0.5,7.9,0.4
	c1.7,0,3.3-0.1,5-0.3c2.2-0.4,4.2-1.2,6-2.4"/>
<path class="st24" d="M865.7,729.6c0.4-0.7,1.1-1.1,1.9-1.2c0.5-0.1,0.9-0.1,1.4-0.1c2.8,0,4.9,1,7.5,1.5c2.6,0.4,5.2,0.5,7.9,0.4
	c1.7,0,3.3-0.1,5-0.3c2.2-0.4,4.2-1.2,6-2.4"/>
<path class="st24" d="M111.2,708c0.4-0.7,1.1-1.1,1.9-1.2c0.5-0.1,0.9-0.1,1.4-0.1c2.9,0,5.1,0.9,7.8,1.4c2.7,0.3,5.5,0.5,8.2,0.4
	c1.7,0,3.5-0.1,5.2-0.3c2.2-0.3,4.4-1.1,6.3-2.2"/>
<path class="st24" d="M60.4,758.5c0.9-2.3,2.8-3.9,5.1-4.5c1.2-0.3,2.5-0.4,3.8-0.4c7.7,0.1,13.5,3.6,20.4,5.2
	c6.7,1.6,14.3,1.5,21.6,1.4c4.6,0.1,9.2-0.3,13.7-1.1c7.3-1.5,12.1-5.2,16.5-8.7"/>
<path class="st26" d="M759.9,690.9c-0.2,0.4-0.2,0.9-0.1,1.4c0.3,0.9,1.4,1.2,2.3,1.3c2.2,0.2,4.4,0.3,6.6,0.2l19.9-0.4
	c0.3,0,0.6,0,0.9-0.2c0.3-0.2,0.5-0.4,0.6-0.7c1.4-2.5,2.2-5.2,2.6-8c0.1-0.4,0.1-0.8-0.1-1.2c-0.3-0.5-0.8-0.8-1.4-1
	c-2.8-1.1-5.7-2-8.6-2.7c-1.9-0.4-3.8-1-5.6-1.6c-2.4-0.9-4.8-3.1-7.3-3.5c-2.2-0.4-2.5,1.3-3.2,3C764.7,682,761.3,686,759.9,690.9z
	"/>
<linearGradient id="SVGID_3_" gradientUnits="userSpaceOnUse" x1="768.6263" y1="513.3058" x2="850.1187" y2="513.3058" gradientTransform="matrix(0.9661 0.2583 -0.2583 0.9661 158.0106 -40.3302)">
	<stop  offset="0" style="stop-color:#808080;stop-opacity:0.25"/>
	<stop  offset="0.54" style="stop-color:#808080;stop-opacity:0.12"/>
	<stop  offset="1" style="stop-color:#808080;stop-opacity:0.1"/>
</linearGradient>
<path class="st27" d="M834.6,718.2c-0.5-2.3-2.5-3.9-4.5-5.3c-1.9-1.4-4-2.7-6.1-4c3.4-1.8,6.5-4.1,9.2-6.8c1.7-1.4,3.1-3.1,4.3-4.9
	c1.2-1.9,1.5-4.1,1.1-6.3c-0.9-2.5-2.8-4.5-5.3-5.4s-5.1-1.3-7.7-1.4c-1.9-0.1-3.8-0.2-5.6-0.3c1.2-0.2,2.3-0.5,3.5-0.9
	c4.2-1.4,8.3-3.2,12.1-5.5c1.3-0.6,2.3-1.6,2.9-2.9c0.2-1.3-0.3-2.6-1.4-3.4c-1.1-0.7-2.3-1.2-3.6-1.2c-3.6-0.2-7.1,1.1-9.7,3.6
	c-0.8,0.9-1.7,1.7-2.7,2.4c-1.2,0.9-2.9,0.6-3.8-0.6c-0.3-0.5-0.4-1.1-0.4-1.7l0.1-0.1c3-2.8,4.5-6.9,3.9-11c-0.5-3.1-1.5-6-3-8.8
	c2.1-0.7,4.2-1.2,6.4-1.4c0.6,0,1.2-0.1,1.7-0.3c1.1-0.6,1.9-1.6,2.1-2.9c0.2-1.2,0.6-2.3,1-3.5c5.4,3.4,12.5,2.3,16.6-2.7
	c2.3,0.1,4.7-0.4,6.8-1.5c2.5-1.5,4.7-5,3.2-7.8c-0.6-0.9-1.3-1.6-2.1-2.3c-1-1.2-1.8-2.6-2.3-4.1c-2.6-6.7-8.3-9.3-15.1-10.3
	c-3.1-0.6-6.2-0.6-9.3-0.2c-2.4,0.4-4.7,1.1-6.9,2l-1.1,0.4c-0.1-1.8-0.4-3.6-0.4-5c-0.1-0.6,0-1.2,0.2-1.8c0.5-0.9,1.4-1.5,2.4-1.8
	l13.7-5.8c1.4-0.7,2.9-1.2,4.5-1.6c4.5-1.1,9.4,0,13.5-2.1c2.4-1.2,4.1-3.4,4.8-6c0.5-1.8,0.2-4.1-1.5-5.1c-1.6-1-3.9-0.1-5.7,0.7
	c-5.8,3.1-11.7,5.8-17.9,8c-5.9,2-12.1,3.2-17.6,6c-1,0.5-1.9,1.1-2.7,1.8c-0.8,0.9-1.5,2-2,3.1l-2.1,4.1c-1.7,3.3-3.3,7.2-2,10.5
	c-0.2,0.2-0.4,0.5-0.5,0.7c-0.6,1-0.3,2.3-0.8,3.2s-2.5,1.7-3.4,2.4c-1.3,0.9-2.6,1.8-3.8,2.8c-4.8,3.8-9.2,8.2-13.2,12.9
	c-5.8,7.2-11.3,14.7-16.2,22.6c-1,1.3-1.7,2.8-2.3,4.3c-0.4,1.4-0.3,3,0.1,4.4c-2,4.3-5,8.1-6.3,12.7l-0.8,0.1
	c-1.5,4.2-0.5,9,0.2,13.4c0.4,2.5,1,5.2,3.1,6.7c1.1,0.7,2.3,1.2,3.6,1.5c1.5,0.4,2.8,0.8,4.1,1.2h-0.2c-1.7-0.2-3.6,0-4.6,1.3
	c-0.5,0.7-0.8,1.6-0.8,2.4l-3.2,17.8c-0.4,1.3-0.3,2.7,0.2,4c0.7,1,1.7,1.8,2.9,2.2c2.1,0.9,4.4,1.6,6.7,1.8c1,0.2,1.9,0.1,2.9-0.2
	c0.9-0.3,1.5-1.2,1.5-2.2c-0.2-1.4-1.9-2-2.4-3.2c-0.8-1.6,0.5-3.4,1.7-4.7c0.2-0.2,0.4-0.4,0.6-0.6c0.5,1.4,1.1,2.7,1.9,3.9
	c0.6,1.1,1.7,1.7,2.9,1.6c2.8-0.6,5.6-1.2,8.5-1.8l0.5,0.2c4.7,2,9.5,3.5,14.4,4.7c0.9,0.3,1.9,0.4,2.8,0.2c1-0.2,1.7-0.9,1.9-1.8
	c0.1-1.1-0.8-2.1-1.8-2.8c-1.8-1.2-3.7-2.2-5.8-2.9l9.2-1.7c3.1-0.7,6.2-1,9.3-1.1c4,0.1,8.5,1,11.8-1.3c1.8-1.6,3.1-3.7,3.7-6
	C834.6,721.4,834.8,719.8,834.6,718.2z M802.8,683.4c-1.4,0-3,0-4.7,0c0.2-1.2,0.3-2.4,0.4-3.6c0-0.4,0.1-0.7,0.4-1
	c0.3-0.3,0.7-0.4,1.1-0.5l5.7-1.1c0.3-0.9,0.1-1.9-0.4-2.8c0.4,0.3,0.9,0.6,1.4,0.8c-0.1,2.4,0.3,4.7,1.2,6.9c0.2,0.5,0.5,1,0.9,1.3
	h0.1C806.9,683.4,804.9,683.4,802.8,683.4z"/>
<path class="st15" d="M824.8,684.7c2.6,0,5.1,0.5,7.5,1.3c2.4,0.9,4.4,2.8,5.2,5.3c0.5,2.1,0.1,4.4-1,6.2c-1.2,1.8-2.6,3.4-4.2,4.8
	c-3,3-6.6,5.5-10.4,7.4c-1.9,0.8-3.9,1.4-5.8,2.3c-4,2-7,5.4-10,8.7c-2.9,3-5.4,6.4-7.4,10.1c-0.1,0.3-0.3,0.6-0.6,0.7
	c-0.3,0-0.6,0-0.8-0.2l-8.5-4c-0.8-0.2-1.2-1-1.1-1.7c0.1-0.3,0.2-0.5,0.4-0.7c4.1-7.8,9.8-14.6,16.7-20.1c-6,3.2-13.1,3.4-19.2,0.4
	c-1.2-0.5-2.2-1.4-3-2.4c-1.5-2.3-0.6-5.4,0.6-7.9c1-2.2,2.2-4.4,3.5-6.5c3.1-5,10.7-4.5,15.9-4.5C810,684,817.4,684.2,824.8,684.7z
	"/>
<path class="st5" d="M813.2,702.1c-1.4,0.2-2.8,0.6-4,1.3c2.1-1.4,6.9-1.1,9.3-1.3c3.1-0.1,6.2-0.7,9.2-1.7
	C822.8,700.6,818,701.2,813.2,702.1z"/>
<path class="st28" d="M774.3,732.4c-1.2,1.3-2.4,3.1-1.7,4.7c0.6,1.2,2.2,1.8,2.4,3.2c0,1-0.5,1.9-1.5,2.2c-0.9,0.3-1.9,0.4-2.8,0.2
	c-2.3-0.3-4.5-0.9-6.5-1.8c-1.2-0.4-2.1-1.2-2.8-2.2c-0.5-1.2-0.5-2.6-0.2-3.9l3.1-17.7c0.1-0.9,0.4-1.7,0.8-2.4
	c1-1.3,2.9-1.5,4.5-1.3c1.8,0.2,3.6,0.6,5.4,1.2c1.2,0.3,2.3,1,3,2c0.6,1.3,0.8,2.7,0.6,4.1c-0.1,2.2,0.2,5.3-0.6,7.3
	C777.5,729.6,775.4,731.1,774.3,732.4z"/>
<path class="st28" d="M795.6,732.2c3.5,0.5,6.8,1.8,9.7,3.8c0.9,0.7,1.9,1.6,1.7,2.7c-0.2,0.9-1,1.7-1.9,1.8s-1.9,0-2.8-0.2
	c-4.8-1.1-9.5-2.7-14.1-4.6c-1.2-0.4-2.3-1.1-3.2-2c-0.9-1-1-2.4-0.2-3.5c0.9-1,2.5-1,3.6-1.9c0.7-0.6,1.2-1.7,2.2-1.9
	c0.7,0,1.4,0.2,1.9,0.7c0.8,0.6,2.9,1.4,3.3,2.4C795.9,730.4,795.8,731.3,795.6,732.2z"/>
<path class="st15" d="M759.2,690.9c5.8-1,11.7-2,17.5-2.4c4.4-0.3,9.1-0.2,12.5,2.4c1,0.8,1.9,1.7,2.9,2.6c3.3,2.9,7.5,4.3,11.6,5.9
	c9,3.5,17.6,8.1,25.5,13.7c1.9,1.3,3.9,2.9,4.4,5.2c0.2,1.6,0,3.2-0.6,4.7c-0.6,2.3-1.8,4.4-3.6,6c-3.2,2.3-7.6,1.4-11.5,1.4
	c-3.1,0.1-6.1,0.4-9.1,1.1c-9.7,1.8-19.5,3.6-29.1,5.8c-1.2,0.1-2.3-0.5-2.9-1.6c-1.9-3-2.9-6.6-3-10.2c0-3.6,0.4-7.2,1.4-10.6
	c-3.3-0.9-6-1.8-9.3-2.6c-1.2-0.3-2.4-0.7-3.5-1.4c-2-1.5-2.6-4.2-3-6.6C758.6,699.8,757.7,695.1,759.2,690.9z"/>
<path class="st5" d="M816.1,719.3c-2.2-1.6-4.7-2.7-7.3-3.2c-1.6-0.5-3.2-0.8-4.8-0.9c-2.6,0-5.1,0.3-7.6,0.7
	c-6.1,0.9-12.4,0.4-18.4-1.2"/>
<path class="st29" d="M858.6,578.1c0,0-26.7,118.5-25.3,121.9s10,20.6-5.7,74.8c-0.3,2.4-2.4,4.3-4.8,4.1c-4.4,0-19.7-4.5-19.7-4.5
	c-1.2-1.3-1.7-3.1-1.3-4.8c0.5-3.2,6-55.3,25.7-72.6l24.4-119.9C851.8,577.2,855,574.7,858.6,578.1z"/>
<path class="st29" d="M852.3,569.9l7.6,1.3c1.6,0.3,2.9,1.5,3.3,3c0.5,2.2,0.2,5.1-4.8,5.2c-8.2,0.2-6.5-2.2-6.5-2.2s-4.1,0-4.3-3.1
	c-0.1-2.2,1.5-4.1,3.7-4.3C851.6,569.8,851.9,569.8,852.3,569.9z"/>
<path class="st26" d="M820.8,635.3c-2.8,0-5.4-1.2-7.3-3.2c-0.4-0.4-0.8-0.8-1.3-1.1c-0.9-0.3-1.9-0.2-2.8,0.4
	c-2.7,1.6-3.9,5.1-3.6,8.2c0.5,3.1,1.9,6.1,3.8,8.5c1.5,2.1,3.1,4,4.8,5.9c1.9-2.4,4.7-4,7.8-4.3c2.7-0.3,5.2-2.4,7.3-4.2
	c1.5-1.4,2.4-1.1,1.9-3c-0.6-1.9-1.5-3.8-2.5-5.5c-0.6-1-1-2.1-1.3-3.2c-0.3-1.3,0-2-1.2-1.4c-0.8,0.4-1.4,1.6-2.3,2.1
	C823.1,634.9,822,635.3,820.8,635.3z"/>
<path class="st26" d="M817.8,615.7c-0.1-0.6,0-1.2,0.2-1.7c0.5-0.9,1.4-1.5,2.3-1.8l13.3-5.8c1.4-0.7,2.9-1.2,4.4-1.6
	c4.4-1.1,9.2,0,13.2-2.1c2.3-1.2,4-3.4,4.7-5.9c0.4-1.8,0.2-4.1-1.4-5s-3.8-0.1-5.6,0.8c-5.6,3.1-11.5,5.7-17.4,8
	c-5.7,2-11.8,3.2-17.2,6c-1,0.5-1.9,1.1-2.6,1.8c-0.8,0.9-1.5,2-2,3.1l-2,4c-1.7,3.4-3.5,7.4-1.8,10.9c0.5,1.1,1.4,1.9,2.6,2.2
	c0.8,0.1,1.6,0.1,2.4-0.2c2.1-0.4,5.5-0.4,6.7-2.6C818.9,623,818,618.5,817.8,615.7z"/>
<path class="st26" d="M820.3,676.7c1-0.7,1.9-1.5,2.7-2.4c2.5-2.4,5.9-3.7,9.4-3.5c1.3,0,2.6,0.4,3.6,1.1c1.1,0.8,1.6,2.1,1.4,3.3
	c-0.5,1.3-1.5,2.3-2.8,2.9c-3.7,2.3-7.7,4.1-11.9,5.5s-8.6,1.7-12.9,0.9c-0.4-0.1-0.8-0.2-1.2-0.4c-0.4-0.3-0.7-0.8-0.9-1.3
	c-1.5-3.5-1.2-7.4-0.9-11.1c-0.1,1.4,7.9,0.3,8.6,0.9c1.1,0.9,0.5,2.6,1.1,3.6C817.5,677.3,819.1,677.5,820.3,676.7z"/>
<circle class="st26" cx="834.9" cy="636.5" r="12.2"/>
<path class="st17" d="M808.2,623.8c2.3-0.7,4.8-0.9,7.3-0.5c1.5-0.3,2.8,0.7,3.1,2.2c0,0.1,0,0.2,0,0.2c0.4,1.3,0.6,2.8,0.6,4.2
	s-0.8,2.7-1.9,3.6c-0.9,0.5-2,0.6-2.9,1.1c-1.2,0.8-2,2.2-2.1,3.6c-0.1,1.4,0.1,2.9,0.5,4.3c0.9,3.5,2.1,7,3.6,10.3
	c1.5,3.5,3.4,6.9,3.8,10.7c0.6,4-0.9,8.1-3.9,10.9c-3.1,2.7-7.6,3-11.1,0.8c0.5,0.8,0.6,1.8,0.4,2.7L800,679c-0.8,0-1.4,0.6-1.5,1.4
	v0.1c-0.1,2.1-0.5,4.2-1,6.2c-0.6,2.1-2.2,3.7-4.2,4.3c-1.9,0.4-3.8-0.6-5.5-1.5c-4.1-2-8.3-3.6-12.7-4.8c-2.2-0.4-4.3-1.3-6.2-2.5
	c-2.4-2-3.5-5.1-2.7-8.2c0.5-1.5,1.3-3,2.2-4.3c4.9-7.7,10.2-15.2,15.9-22.3c3.9-4.7,8.2-9,12.9-12.8c1.2-1,2.4-1.9,3.7-2.8
	c0.9-0.6,2.8-1.4,3.4-2.3c0.6-1,0.2-2.1,0.8-3.1C805.8,625.2,806.9,624.3,808.2,623.8z"/>
<path class="st30" d="M851.1,642.7c-2.2,1.2-4.7,1.7-7.3,1.5c-2.5-0.1-5-0.5-7.4-0.6c-3.1-0.1-6.7,0.6-8.1,3.3
	c-0.5,1.1-0.8,2.3-1,3.5s-1,2.2-2.1,2.8c-0.6,0.2-1.1,0.3-1.7,0.3c-10.7,1.1-19.5,8.6-22.4,18.9c-2.5-2.5-3.8-6.1-3.4-9.7
	c-0.8,3.1-4.4,5.6-3.6,8.8c-5.5-6.1-5-15.5,1.1-21c0.3-0.3,0.7-0.6,1.1-0.9c1.6-1.2,3.4-2.1,5.1-3.2c4.7-3.2,7.8-8.1,8.7-13.7
	c0.4-2.3,0.3-4.8,1.4-6.9c1.5-2.9,4.8-4.4,7.9-5.5c2.2-0.9,4.5-1.6,6.8-2c3-0.4,6.1-0.3,9.1,0.2c6.7,1,12.2,3.6,14.8,10.1
	c0.5,1.5,1.2,2.8,2.2,4c0.8,0.7,1.5,1.4,2.1,2.3C855.7,637.7,853.5,641.2,851.1,642.7z"/>
<path class="st23" d="M133,780.2c0,0,100.5-46.9,138.4-30.5s126.8,13.2,126.8,13.2s158-6.5,176.1,0s182.7,6.6,190.9,0
	s102.1-11.5,116.9,0c9.1,7,19,12.8,29.6,17.3H133z"/>
<path class="st24" d="M133,780.2c0,0,100.5-55.7,138.4-36.2s126.7,15.6,126.7,15.6s158-7.8,176.1,0s182.7,7.8,190.9,0
	s102.1-13.7,116.9,0c8.9,8.2,18.8,15.1,29.6,20.6L133,780.2z"/>
</svg>
