<?xml version="1.0" encoding="utf-8"?>
<!-- Generator: Adobe Illustrator 23.1.1, SVG Export Plug-In . SVG Version: 6.00 Build 0)  -->
<svg version="1.1" id="Capa_1" xmlns="http://www.w3.org/2000/svg" xmlns:xlink="http://www.w3.org/1999/xlink" x="0px" y="0px"
	 viewBox="0 0 512 439" style="enable-background:new 0 0 512 439;" xml:space="preserve">
<style type="text/css">
	.st0{fill:#11AB7C;stroke:#11AB7C;stroke-width:10;stroke-miterlimit:10;}
</style>
<g>
	<g>
		<path class="st0" d="M503.1,252.3c0-0.3,0-0.6-0.1-0.9L478,81.1c-0.4-2.9-2.1-5.4-4.8-6.9c-2.6-1.4-5.7-1.7-8.5-0.6l-115,45.3
			c-5,2-7.4,7.5-5.4,12.4s7.7,7.2,12.7,5.2l103.5-40.7l23,157c0,0.5,0.1,0.9,0.1,1.3c5.1,29.1-0.5,59.1-15.6,84.7
			c-17.3,29.5-45.4,50.4-79,59.2c-33.6,8.8-68.6,4.2-98.8-12.9c-0.2-0.1-0.4-0.2-0.7-0.3c6.4-4.8,12.6-10,18.2-15.5l114-29.9
			c5.2-1.3,8.3-6.6,6.9-11.6s-6.7-8.1-11.9-6.8L329,344c9.6-14,17.1-29.6,22.3-46l78.3-20.5c5.2-1.3,8.3-6.6,6.9-11.6
			c-1.4-5.1-6.7-8.1-11.9-6.8l-57.5,15.1l21.6-36.7l45.8-12c5.2-1.3,8.3-6.6,6.9-11.6c-1.4-5.1-6.7-8.1-11.9-6.8l-27,7.1l20.7-35.2
			c2.7-4.6,1.1-10.4-3.6-13.1c-4.7-2.7-10.6-1-13.3,3.5l-20.7,35.2l-7.2-26.4c-1.4-5.1-6.7-8.1-11.9-6.8c-5.2,1.3-8.3,6.6-6.9,11.6
			l12.3,44.8l-12.7,21.5c0.4-30.5-7.6-60.6-23.6-87.8c-20.2-34.1-51.9-60.6-89.5-74.7c-0.1,0-0.1-0.1-0.2-0.1L202,69.2
			c-5-2-10.6,0.4-12.7,5.2s0.4,10.5,5.4,12.4l43.6,17.4c0.2,0.1,0.4,0.2,0.6,0.3c33.6,12.5,61.9,36.1,79.9,66.5
			c20.9,35.5,26.4,76.7,15.5,116.4c-10,36.5-32.9,67.5-64.9,88.2L253,347.9l35.4-129.5c1.4-5.1-1.7-10.3-6.9-11.6
			c-5.2-1.3-10.5,1.6-11.9,6.8l-30.4,111.2l-36-61.1l24.5-89.8c1.4-5.1-1.7-10.3-6.9-11.6s-10.5,1.6-11.9,6.8l-19.5,71.2L161,192.1
			l14.8-54.1c1.4-5.1-1.7-10.3-6.9-11.6c-5.2-1.3-10.5,1.6-11.9,6.8l-9.7,35.7l-27-45.7c-2.7-4.6-8.7-6.1-13.3-3.5
			c-4.7,2.7-6.2,8.5-3.6,13.1l27,45.7L94,168.6c-5.2-1.3-10.5,1.6-11.9,6.8c-1.4,5.1,1.7,10.3,6.9,11.6l55.2,14.5l28.4,48.2
			l-72.9-19.2c-5.2-1.3-10.5,1.6-11.9,6.8c-1.4,5.1,1.7,10.3,6.9,11.6l91.7,24l36,61.1L109,304.3c-5.2-1.3-10.5,1.6-11.9,6.8
			c-1.4,5.1,1.7,10.3,6.9,11.6l132.2,34.7l16.4,27.7C179,421,88.4,395.1,47,324.7c-18.4-30.8-25-67-18.9-102.1
			c0.1-0.5,0.1-1,0.1-1.4L56.1,31.9l64.6,25.6c5,2,10.6-0.4,12.7-5.2S133,41.8,128,39.9L51.8,9.7c-2.7-1.1-5.9-0.9-8.5,0.6
			c-2.6,1.4-4.4,4-4.8,7L8.8,219.9c0,0.3-0.1,0.7-0.1,1c-6.4,39,1.1,79.3,21.3,113.6c32.5,55.2,91.8,86,152.8,86
			c26.9,0,54.1-6,79.5-18.7l12,20.3c1.8,3.1,5.1,4.8,8.5,4.8c1.7,0,3.3-0.4,4.9-1.2c4.7-2.7,6.2-8.5,3.6-13.1l-4.5-7.5
			c21.5,11,45,16.5,68.7,16.5c12.9,0,26-1.6,38.8-5c38.6-10.1,70.9-34.2,90.8-68.1C502.1,319.5,508.6,285.3,503.1,252.3z"/>
	</g>
</g>
</svg>
