<?xml version="1.0" encoding="utf-8"?>
<!-- Generator: Adobe Illustrator 22.1.0, SVG Export Plug-In . SVG Version: 6.00 Build 0)  -->
<svg version="1.1" id="Layer_1" xmlns="http://www.w3.org/2000/svg" xmlns:xlink="http://www.w3.org/1999/xlink" x="0px" y="0px"
	 viewBox="0 0 500 352" style="enable-background:new 0 0 500 352;" xml:space="preserve">
<style type="text/css">
	.st0{fill:#F8F9FC;}
</style>
<g id="XMLID_839_">
	<path id="XMLID_852_" class="st0" d="M371.4,233c0,0-0.4,0-1.1,0c-0.6,0-1.1,0-1.1,0c-17.6,0-29.1,14-29.1,31.9
		c0,14.8,8.2,34.6,29.9,34.6h0.1h0.3h0.1c21.6,0,29.9-19.8,29.9-34.6C400.5,247,389,233,371.4,233z M370.2,295.6
		c-8.2-0.1-11.1-17.8-11.1-28.9c0-14.5,1.5-28.2,11.1-28.8c9.6,0.5,11.1,14.3,11.1,28.8C381.4,277.8,378.6,295.5,370.2,295.6z"/>
	<path id="XMLID_851_" class="st0" d="M285.6,167.8c-5.3,0-14.1,1.8-14.1,13.6s10.6,18.4,24.5,19.6v3.6l9.7-2.9c0.5-0.1,1-0.1,1.5,0
		c1.8,0.3,2.6,1.3,3,3c0.4,2.3-1.1,4-3.4,5c-0.7,0.3-1.8,0.7-2.9,1.1v8.8c1.6-0.6,3.1-1.1,4-1.5c7.1-3,10.9-7.6,9.6-14.3
		c-0.4-1.9-1.1-3.5-2.1-4.9c11.4-3.9,19.1-12.8,19.1-26.5c0-25.1-42.8-33.4-42.8-45.5c0-2.9,1.4-11.6,12.1-12.1
		c17-0.9,23.1,18.4,23.4,18.8h3.6v-23.1h-4.4c0,11.5-2.8-0.9-25.6-0.9c-17.1,0-27.4,10-27.4,23.7c0,24.5,44.5,29.6,44.5,48.6
		c0,16.9-29.9,20.6-22.1,5.1C301.6,175.6,295.9,167.8,285.6,167.8z"/>
	<path id="XMLID_848_" class="st0" d="M394.8,185.5v-30.1c-0.1-7.8-2.8-13.1-7.6-16.3c-5.9-3.4-12.9-4.4-19-4.4
		c-1.6,0-3.4,0.1-5,0.3c-4.8,0.6-9.3,1.9-12.9,4.3c-4.9,3.1-7.6,6.4-7.6,11.8c0,3,1.3,8.4,4.6,11.8c4.3-4.3,7.4-5.3,15.7-7.3v-0.4
		c-10.4-1.4-9.3-16,1.9-16c4.4,0,7.4,0.9,9,2.9c2.1,2.5,2.6,4.1,2.6,19.7c-0.1,0-0.1,0.3-0.5,0.3c-25.5,0-35.5,13.4-35.5,24.6
		c0,12.4,11.5,14.6,16.6,14.6c5.5,0,9.3-0.9,12.5-3c2-1.3,4.4-3.4,7-5.9v8.9c8.6-1.5,17.4-3,26-4.5v-3.9
		C399.9,193.5,394.8,193.9,394.8,185.5z M376.3,186.1c-5.7,6.4-16.8,9.8-16.8-3.4c0-8.5,8.1-14.1,16.4-16.4h0.4V186.1L376.3,186.1z"
		/>
	<path id="XMLID_847_" class="st0" d="M455.6,223.1c0-12.8-12.5-16-22.1-16c-15,0-22.9,13.2-22.9,26v19.1l-5.5,2.1v5.5l5.5-2v26
		c0,4.4-0.9,10.3-7.6,10.3v3.1h32.5v-3.1c-6.1,0-6.9-5.9-6.9-10.3v-32.6l7.5-2.6V243l-7.5,2.8v-24.6c0-4.1,1.5-9.9,6.8-9.9
		c5.4,0,7.4,4,7.4,6.4c0,5.7-3.6,7.9-6.5,9.1v0.5l8.3,3.1l7.1,2.6C454.8,231.3,455.6,225.9,455.6,223.1z"/>
	<path id="XMLID_844_" class="st0" d="M496.9,279.6c-4.3,5.1-8.6,9-14.9,9c-10.4,0-14.7-8.6-16.4-16.5c2-1.9,11.5-8.8,29.8-8.8
		c0,0,3.8,0,3.8-5.7c0-14.6-12.6-25.5-25.3-25.5c-16.9,0-29.1,12.5-29.1,31.1c0,19.8,10.4,35.3,28.1,35.3c11.3,0,20-5,27.1-17
		L496.9,279.6z M464.2,263c-0.1-16.1,1-26.6,9.6-26.6c8.1,0,16.9,23,7,24.5c-8,1.1-13.5,5-16,6.8C464.6,266.1,464.4,264.8,464.2,263
		z"/>
	<path id="XMLID_843_" class="st0" d="M321.9,265c4.8-2.1,8.4-6.8,9.3-11.8c1-6.3-2.4-13.1-6.4-16.1l-19.4,7.9l1,3.2
		c2.8-0.6,4.9-0.6,6,0c2.4,1,5.7,3.8,4.5,9.6v0.1c-0.7,3.6-3.8,5.4-8.1,5.4c-3.8,0-9.1-3.2-9.1-5.9v-45l-28.1,10.1l1.1,3.6
		c1.6-0.1,2.8,0,3.6,0.5c4,1.4,3.8,5.5,3.8,5.5v55.5c0,6.8-4.9,6.5-5.4,6.5v3.1h30.5v-3.1c-0.3,0-5.5,0-5.5-6.5v-20.9
		c0-1,1.5-1.5,3,0.3c16.6,23,17.8,24.1,17.8,26.9c0,2.4-2.1,4.3-4.6,4.6v0.7h8c12.3,0.4,15-11,10.9-17.5L321.9,265z"/>
	<path id="XMLID_842_" class="st0" d="M69.6,237.6C41.5,163.5,51.7,128.8,59.2,94c1.6-7.6-0.3-10.4-3.5-8.8c-0.3,0.1-0.9,0.6-1,0.6
		C25.5,104.1,0,152.8,0,209c0,72.6,40.3,132.5,92.5,139.3C104.5,347.1,103.8,327.6,69.6,237.6z"/>
	<path id="XMLID_841_" class="st0" d="M199.6,126.9c2-13.5-21.1-26.1-21.3-26.1l0,0c11.8,2,18,4.7,26,9.1l0,0
		c-6.9-14.1-18.1-24.9-31.1-32.2c3-2.2,5.3-5.6,6.1-10.5c-5.9,6.5-16.9,3-32.9,0.1c-22.1-5.4-45-3.9-60.6,3.2
		C42,90.7,76.5,186.9,90.1,228.9c31.1,96.1,19.6,118.5,9.4,123c36.9-3.5,60.3-22.1,74.9-42.8c5.9-7.9,11.1-16.6,15.6-26.3
		c0.9,3,1.5,6.1,2.1,8.9c13.5-26.9,14.1-48.1,12.5-60.3c-7-5.7-12.6-11.1-13.9-14.1c6.1,3.1,10.4,4.5,14.3,4.9l0,0
		c9.6,0.6,18.4-5.5,19.3-6c1,1.1,1.6,6,1.4,8.9c12.4-17.9,2.1-28.8,1-29.9c4.1-6.8,5.7-19.6,6-22.4c10.1-10.4,7.2-17.1,7.2-17.1
		S202.9,128.6,199.6,126.9z"/>
	<path id="XMLID_840_" class="st0" d="M71.9,67.1c15.3-8.8,30.5-12.2,48.1-12.2c14,0,28.5,2.2,41,6.5l10.4-36.3l-19.3,16.1
		l-1.9-27.8L131.7,36L112.6,0.1L96.5,37.5L74,17.8l1.9,27.8l-21.5-14L71.9,67.1z"/>
</g>
</svg>
